<svg width="23" height="20" viewBox="0 0 23 20" fill="none" xmlns="http://www.w3.org/2000/svg">
<path d="M20.79 4H5.79L5 0.91C4.93436 0.653344 4.78631 0.42532 4.57857 0.260932C4.37082 0.0965441 4.11487 0.00487634 3.85 0H1C0.734784 0 0.48043 0.105357 0.292893 0.292893C0.105357 0.48043 0 0.734784 0 1C0 1.26522 0.105357 1.51957 0.292893 1.70711C0.48043 1.89464 0.734784 2 1 2H3.23L4 5.22L6 15C6.045 15.2782 6.1873 15.5315 6.40157 15.7146C6.61583 15.8977 6.88814 15.9989 7.17 16H19.83C20.124 15.9963 20.4062 15.8839 20.6222 15.6845C20.8383 15.4851 20.9728 15.2128 21 14.92L22 5.32C22.0169 5.15178 21.9981 4.98189 21.9448 4.82145C21.8915 4.66101 21.8049 4.51365 21.6906 4.38902C21.5764 4.2644 21.4371 4.16532 21.2819 4.09827C21.1267 4.03123 20.9591 3.99774 20.79 4ZM19.11 14H7.83L6.23 6H19.91L19.11 14Z" fill="#7A34A6"/>
<path d="M9.50977 20C10.3382 20 11.0098 19.3284 11.0098 18.5C11.0098 17.6716 10.3382 17 9.50977 17C8.68134 17 8.00977 17.6716 8.00977 18.5C8.00977 19.3284 8.68134 20 9.50977 20Z" fill="#7A34A6"/>
<path d="M16.5098 20C17.3382 20 18.0098 19.3284 18.0098 18.5C18.0098 17.6716 17.3382 17 16.5098 17C15.6813 17 15.0098 17.6716 15.0098 18.5C15.0098 19.3284 15.6813 20 16.5098 20Z" fill="#7A34A6"/>
</svg>
