<svg width="32" height="23" viewBox="0 0 32 23" fill="none" xmlns="http://www.w3.org/2000/svg">
<path d="M0 1.74072H19.5185V18.9629H12.6296" stroke="#7A34A6" stroke-width="2" stroke-miterlimit="10" stroke-linejoin="round"/>
<path d="M25.2592 21.2593C26.5274 21.2593 27.5555 20.2313 27.5555 18.963C27.5555 17.6948 26.5274 16.6667 25.2592 16.6667C23.991 16.6667 22.9629 17.6948 22.9629 18.963C22.9629 20.2313 23.991 21.2593 25.2592 21.2593Z" stroke="#7A34A6" stroke-width="2" stroke-miterlimit="10" stroke-linejoin="round"/>
<path d="M6.88809 21.2593C8.1563 21.2593 9.18439 20.2313 9.18439 18.963C9.18439 17.6948 8.1563 16.6667 6.88809 16.6667C5.61988 16.6667 4.5918 17.6948 4.5918 18.963C4.5918 20.2313 5.61988 21.2593 6.88809 21.2593Z" stroke="#7A34A6" stroke-width="2" stroke-miterlimit="10" stroke-linejoin="round"/>
<path d="M19.5176 18.9629V6.33325H26.4065L30.9991 12.074V18.9629H27.5546" stroke="#7A34A6" stroke-width="2" stroke-miterlimit="10" stroke-linejoin="round"/>
<path d="M2.29688 6.33325H12.6302" stroke="#7A34A6" stroke-width="2" stroke-miterlimit="10" stroke-linejoin="round"/>
<path d="M0 10.926H10.3333" stroke="#7A34A6" stroke-width="2" stroke-miterlimit="10" stroke-linejoin="round"/>
</svg>
