<svg width="41" height="29" viewBox="0 0 41 29" fill="none" xmlns="http://www.w3.org/2000/svg">
<path fill-rule="evenodd" clip-rule="evenodd" d="M16.4957 24.347L24.3471 24.347H27.0653C27.6367 26.556 29.6481 28.1941 32.0323 28.1941C34.4166 28.1941 36.4213 26.556 36.9963 24.347H40.9997V13.8912L38.0792 5.12964H26.9025V0H0V2.56481H24.347V21.7822H16.4989C15.9275 19.573 13.9161 17.9348 11.5317 17.9348C9.14729 17.9348 7.13581 19.5731 6.56452 21.7823H5.1207V15.3796H2.56525V24.3471H6.56467C7.13615 26.5561 9.14749 28.1941 11.5317 28.1941C13.916 28.1941 15.9207 26.556 16.4957 24.347ZM38.4349 21.7822H36.9995C36.4282 19.573 34.4167 17.9348 32.0323 17.9348C29.6479 17.9348 27.6365 19.573 27.0652 21.7822H26.9026V7.69445H36.2351L38.4349 14.3031V21.7822ZM32.0323 20.4996C30.6189 20.4996 29.4675 21.651 29.4675 23.0644C29.4675 24.4779 30.6189 25.6293 32.0323 25.6293C33.4458 25.6293 34.5971 24.4779 34.5971 23.0644C34.5971 21.651 33.4458 20.4996 32.0323 20.4996ZM8.9669 23.0644C8.9669 21.651 10.1183 20.4996 11.5317 20.4996C12.9452 20.4996 14.0965 21.651 14.0965 23.0644C14.0965 24.4779 12.9452 25.6293 11.5317 25.6293C10.1183 25.6293 8.9669 24.4779 8.9669 23.0644ZM12.8142 5.12964H1.28194V7.69445H12.8142V5.12964ZM2.56525 10.25H10.2503V12.8148H2.56525V10.25Z" fill="#7A34A6"/>
</svg>
