<svg width="38" height="19" viewBox="0 0 38 19" fill="none" xmlns="http://www.w3.org/2000/svg">
<path fill-rule="evenodd" clip-rule="evenodd" d="M19.0586 6.92969C20.6691 6.92969 21.3467 8.07601 21.3784 9.22182C21.4105 10.4205 20.7429 11.6406 19.0586 11.6406H17.5137V6.92969H19.0586ZM33.4748 0.386719C35.5814 0.386719 37.2891 2.08177 37.2891 4.17274V14.3976C37.2891 16.4885 35.5814 18.1836 33.4748 18.1836H4.76936C2.66278 18.1836 0.955078 16.4885 0.955078 14.3976V4.17274C0.955078 2.08177 2.66278 0.386719 4.76936 0.386719H33.4748ZM10.4473 10.8031H12.5566C16.1953 10.8031 16.1953 5.56566 12.5566 5.56571C11.9766 5.56571 11.3965 5.56833 10.8164 5.57095C10.2363 5.57357 9.65625 5.57618 9.07617 5.57618V12.9492H10.4473V10.8031ZM16.1426 12.9492H19.0586C21.6542 12.9492 22.798 11.0832 22.7663 9.22182C22.7342 7.4034 21.6009 5.62109 19.0586 5.62109H16.1426V12.9492ZM25.2656 6.92969H29.2207V5.62109H23.8945V12.9492H25.2656V10.2273H29.0098V8.97109H25.2656V6.92969ZM10.4473 9.49453H12.5566C14.3496 9.49453 14.3496 6.92969 12.5566 6.92969H10.4473V9.49453Z" fill="#7A34A6"/>
</svg>
