<svg width="33" height="33" viewBox="0 0 33 33" fill="none" xmlns="http://www.w3.org/2000/svg">
<path fill-rule="evenodd" clip-rule="evenodd" d="M16.5 0C7.3873 0 0 7.3873 0 16.5C0 25.6127 7.3873 33 16.5 33C25.6127 33 33 25.6127 33 16.5C33 7.3873 25.6127 0 16.5 0ZM12.872 7.75287C13.8106 7.71016 14.1106 7.69971 16.5005 7.69971H16.4978C18.8885 7.69971 19.1873 7.71016 20.126 7.75287C21.0628 7.79577 21.7027 7.94409 22.2637 8.16171C22.843 8.3863 23.3325 8.68697 23.822 9.17647C24.3115 9.66561 24.6122 10.1566 24.8377 10.7354C25.054 11.2949 25.2025 11.9344 25.2465 12.8712C25.2887 13.8099 25.2997 14.1098 25.2997 16.4998C25.2997 18.8898 25.2887 19.189 25.2465 20.1276C25.2025 21.0641 25.054 21.7038 24.8377 22.2635C24.6122 22.8421 24.3115 23.3331 23.822 23.8222C23.3331 24.3117 22.8428 24.6131 22.2642 24.8379C21.7043 25.0555 21.0641 25.2038 20.1273 25.2467C19.1886 25.2894 18.8896 25.2999 16.4994 25.2999C14.1097 25.2999 13.8099 25.2894 12.8712 25.2467C11.9346 25.2038 11.2949 25.0555 10.735 24.8379C10.1566 24.6131 9.66561 24.3117 9.17666 23.8222C8.68733 23.3331 8.38666 22.8421 8.16171 22.2633C7.94428 21.7038 7.79596 21.0643 7.75287 20.1275C7.71034 19.1888 7.69971 18.8898 7.69971 16.4998C7.69971 14.1098 7.71071 13.8097 7.75269 12.871C7.79486 11.9346 7.94336 11.2949 8.16153 10.7352C8.38703 10.1566 8.6877 9.66561 9.17721 9.17647C9.66634 8.68715 10.1573 8.38648 10.7361 8.16171C11.2956 7.94409 11.9351 7.79577 12.872 7.75287Z" fill="#7A34A6"/>
<path fill-rule="evenodd" clip-rule="evenodd" d="M15.7109 9.2854C15.8642 9.28516 16.0291 9.28524 16.2071 9.28532L16.5004 9.2854C18.85 9.2854 19.1285 9.29384 20.0563 9.336C20.9144 9.37524 21.38 9.51861 21.6902 9.63906C22.1009 9.79856 22.3937 9.98923 22.7015 10.2972C23.0095 10.6052 23.2002 10.8986 23.36 11.3092C23.4805 11.6191 23.624 12.0847 23.6631 12.9428C23.7053 13.8704 23.7144 14.1491 23.7144 16.4976C23.7144 18.8462 23.7053 19.1248 23.6631 20.0525C23.6239 20.9105 23.4805 21.3762 23.36 21.686C23.2005 22.0967 23.0095 22.3891 22.7015 22.6969C22.3935 23.0049 22.1011 23.1956 21.6902 23.3551C21.3804 23.4761 20.9144 23.6191 20.0563 23.6583C19.1287 23.7005 18.85 23.7097 16.5004 23.7097C14.1506 23.7097 13.8721 23.7005 12.9444 23.6583C12.0864 23.6187 11.6207 23.4754 11.3103 23.3549C10.8997 23.1954 10.6063 23.0047 10.2983 22.6967C9.99032 22.3887 9.79965 22.0961 9.63979 21.6853C9.51934 21.3754 9.37578 20.9098 9.33673 20.0518C9.29457 19.1241 9.28613 18.8454 9.28613 16.4954C9.28613 14.1454 9.29457 13.8682 9.33673 12.9406C9.37597 12.0825 9.51934 11.6169 9.63979 11.3067C9.79929 10.896 9.99032 10.6027 10.2983 10.2947C10.6063 9.98666 10.8997 9.79599 11.3103 9.63612C11.6205 9.51512 12.0864 9.37212 12.9444 9.3327C13.7562 9.29604 14.0708 9.28504 15.7109 9.2832V9.2854ZM21.1976 10.7472C20.6146 10.7472 20.1416 11.2196 20.1416 11.8028C20.1416 12.3858 20.6146 12.8588 21.1976 12.8588C21.7806 12.8588 22.2536 12.3858 22.2536 11.8028C22.2536 11.2198 21.7806 10.7468 21.1976 10.7468V10.7472ZM11.981 16.5001C11.981 14.0044 14.0043 11.9809 16.5 11.9808C18.9957 11.9808 21.0187 14.0043 21.0187 16.5001C21.0187 18.9958 18.9959 21.0184 16.5002 21.0184C14.0044 21.0184 11.981 18.9958 11.981 16.5001Z" fill="#7A34A6"/>
<path d="M16.5007 13.5664C18.1207 13.5664 19.4341 14.8796 19.4341 16.4998C19.4341 18.1197 18.1207 19.4331 16.5007 19.4331C14.8806 19.4331 13.5674 18.1197 13.5674 16.4998C13.5674 14.8796 14.8806 13.5664 16.5007 13.5664Z" fill="#7A34A6"/>
</svg>
