<svg width="20" height="19" viewBox="0 0 20 19" fill="none" xmlns="http://www.w3.org/2000/svg">
<path d="M17.2929 11.6293H4.6403C4.46347 11.6293 4.29281 11.5658 4.16062 11.451C4.02843 11.3362 3.9439 11.178 3.92304 11.0063L2.98033 3.2421C2.98033 3.2355 2.98033 3.22891 2.98033 3.22185L2.7626 1.43232H0.722563C0.530928 1.43232 0.347141 1.35789 0.211634 1.22542C0.076127 1.09295 0 0.913272 0 0.725924C0 0.538577 0.076127 0.358903 0.211634 0.226429C0.347141 0.0939546 0.530928 0.0195313 0.722563 0.0195313H3.40087C3.57778 0.019476 3.74856 0.0828727 3.88085 0.197705C4.01314 0.312538 4.09774 0.470827 4.11861 0.64257L4.33731 2.44293H18.6441C18.7492 2.44292 18.8531 2.46534 18.9484 2.50861C19.0438 2.55189 19.1283 2.61499 19.1961 2.6935C19.264 2.77202 19.3135 2.86406 19.3412 2.9632C19.3689 3.06234 19.3741 3.1662 19.3565 3.26753L18.0077 11.0426C17.9788 11.2072 17.8911 11.3565 17.7602 11.4639C17.6293 11.5714 17.4638 11.63 17.2929 11.6293ZM5.28242 10.2165H16.6825L17.7866 3.8543H4.5088L5.28242 10.2165Z" fill="#7A34A6"/>
<path d="M17.1729 14.153H4.94671C4.7698 14.1531 4.59902 14.0897 4.46673 13.9749C4.33444 13.86 4.24984 13.7018 4.22896 13.53L3.42933 6.9516C3.4176 6.85923 3.42467 6.76551 3.45011 6.67582C3.47555 6.58613 3.51887 6.50224 3.57758 6.42898C3.63629 6.35571 3.70924 6.2945 3.79222 6.24888C3.8752 6.20326 3.96659 6.17412 4.06113 6.16314C4.15567 6.15216 4.25149 6.15955 4.3431 6.18488C4.43471 6.21022 4.52029 6.25301 4.59493 6.31079C4.66957 6.36856 4.7318 6.44019 4.77803 6.52155C4.82426 6.60292 4.8536 6.69241 4.86434 6.78489L5.5869 12.7403H17.1729C17.3646 12.7403 17.5484 12.8147 17.6839 12.9472C17.8194 13.0796 17.8955 13.2593 17.8955 13.4467C17.8955 13.634 17.8194 13.8137 17.6839 13.9461C17.5484 14.0786 17.3646 14.153 17.1729 14.153Z" fill="#7A34A6"/>
<path d="M15.2227 18.8075C14.7988 18.8076 14.3844 18.6848 14.0319 18.4546C13.6794 18.2244 13.4046 17.8972 13.2423 17.5143C13.0801 17.1315 13.0376 16.7102 13.1203 16.3037C13.2029 15.8972 13.4071 15.5239 13.7068 15.2308C14.0066 14.9378 14.3885 14.7382 14.8042 14.6574C15.22 14.5766 15.651 14.6181 16.0426 14.7768C16.4342 14.9354 16.7689 15.204 17.0044 15.5486C17.2398 15.8932 17.3655 16.2984 17.3654 16.7128C17.3647 17.2682 17.1388 17.8006 16.7371 18.1933C16.3354 18.586 15.7908 18.8069 15.2227 18.8075ZM15.2227 16.029C15.0846 16.0289 14.9496 16.0689 14.8348 16.1438C14.7199 16.2187 14.6304 16.3253 14.5775 16.4499C14.5246 16.5746 14.5107 16.7118 14.5376 16.8442C14.5645 16.9766 14.6309 17.0983 14.7285 17.1937C14.8261 17.2892 14.9505 17.3543 15.0859 17.3806C15.2213 17.407 15.3617 17.3935 15.4892 17.3419C15.6168 17.2902 15.7258 17.2028 15.8026 17.0906C15.8793 16.9783 15.9202 16.8464 15.9202 16.7114C15.9197 16.5308 15.846 16.3577 15.7153 16.2301C15.5846 16.1025 15.4075 16.0307 15.2227 16.0304V16.029Z" fill="#7A34A6"/>
<path d="M6.61334 18.8075C6.18942 18.8076 5.77501 18.6848 5.4225 18.4546C5.06999 18.2244 4.79522 17.8972 4.63296 17.5143C4.47069 17.1315 4.42821 16.7102 4.51088 16.3037C4.59356 15.8972 4.79768 15.5239 5.09744 15.2308C5.39719 14.9378 5.7791 14.7382 6.19487 14.6574C6.61064 14.5766 7.04159 14.6181 7.43322 14.7768C7.82484 14.9354 8.15955 15.204 8.395 15.5486C8.63045 15.8932 8.75608 16.2984 8.75598 16.7128C8.75534 17.2682 8.5294 17.8006 8.12771 18.1933C7.72602 18.586 7.18141 18.8069 6.61334 18.8075ZM6.61334 16.029C6.47527 16.0289 6.34027 16.0689 6.22542 16.1438C6.11057 16.2187 6.02103 16.3253 5.96813 16.4499C5.91522 16.5746 5.90133 16.7118 5.92821 16.8442C5.95509 16.9766 6.02153 17.0983 6.11913 17.1937C6.21672 17.2892 6.34109 17.3543 6.4765 17.3806C6.61192 17.407 6.75228 17.3935 6.87985 17.3419C7.00743 17.2902 7.11647 17.2028 7.19318 17.0906C7.2699 16.9783 7.31085 16.8464 7.31085 16.7114C7.31034 16.5308 7.23666 16.3577 7.10593 16.2301C6.97521 16.1025 6.79808 16.0307 6.61334 16.0304V16.029Z" fill="#7A34A6"/>
</svg>
