<svg width="14" height="12" viewBox="0 0 14 12" fill="none" xmlns="http://www.w3.org/2000/svg">
<path d="M9.45588 9.03181C9.54182 9.11392 9.64924 9.15498 9.7674 9.15498C9.88556 9.15498 9.99298 9.11392 10.0789 9.03181L12.9792 6.2604C13.0007 6.23987 13.0222 6.21935 13.0329 6.19882C13.0329 6.19882 13.0437 6.18855 13.0437 6.17829C13.0544 6.15776 13.0652 6.13723 13.0759 6.12697C13.0759 6.1167 13.0759 6.10644 13.0866 6.10644C13.0974 6.08591 13.0974 6.07564 13.1081 6.05511C13.1189 6.02432 13.1189 6.00379 13.1189 5.973C13.1189 5.9422 13.1189 5.92168 13.1081 5.89088C13.1081 5.87035 13.0974 5.84982 13.0866 5.83956C13.0866 5.8293 13.0866 5.81903 13.0759 5.81903C13.0652 5.7985 13.0544 5.77797 13.0437 5.75744C13.0437 5.75744 13.0437 5.74718 13.0329 5.74718C13.0222 5.72665 13.0007 5.70612 12.9792 5.68559L10.0789 2.91419C9.90704 2.74996 9.62775 2.74996 9.45588 2.91419C9.28401 3.07842 9.28401 3.3453 9.45588 3.50953L11.6043 5.56242H3.96678C3.71972 5.56242 3.52637 5.74718 3.52637 5.98326C3.52637 6.21935 3.71972 6.40411 3.96678 6.40411H11.6043L9.45588 8.457C9.28401 8.6007 9.28401 8.86758 9.45588 9.03181Z" fill="#7A34A6"/>
<path d="M1.06835 11.917H6.86896C7.11602 11.917 7.30938 11.7323 7.30938 11.4962V7.35962C7.30938 7.12354 7.11602 6.93878 6.86896 6.93878C6.6219 6.93878 6.42854 7.12354 6.42854 7.35962V11.0754H1.50876V0.841686H6.42854V4.55742C6.42854 4.7935 6.6219 4.97826 6.86896 4.97826C7.11602 4.97826 7.30938 4.7935 7.30938 4.55742V0.420843C7.30938 0.18476 7.11602 0 6.86896 0H1.06835C0.821283 0 0.62793 0.18476 0.62793 0.420843V11.4962C0.638672 11.7323 0.832025 11.917 1.06835 11.917Z" fill="#7A34A6"/>
</svg>
