<svg width="18" height="18" viewBox="0 0 18 18" fill="none" xmlns="http://www.w3.org/2000/svg">
<path d="M17.5048 17.4353C16.8445 18.0808 15.7742 18.0808 15.1139 17.4353L12.1304 14.5186C10.9039 15.2879 9.45398 15.7462 7.88851 15.7462C3.53212 15.7462 0 12.2936 0 8.0342C0 3.77482 3.53212 0.322266 7.88851 0.322266C12.2455 0.322266 15.777 3.77475 15.777 8.0342C15.777 9.56413 15.3076 10.9821 14.5213 12.1818L17.5048 15.0985C18.1651 15.744 18.1651 16.7898 17.5048 17.4353ZM7.88851 2.52566C4.77679 2.52566 2.25387 4.99157 2.25387 8.03417C2.25387 11.0768 4.77683 13.5427 7.88851 13.5427C11.0007 13.5427 13.5231 11.0768 13.5231 8.03417C13.5231 4.99157 11.0007 2.52566 7.88851 2.52566Z" fill="#7A34A6"/>
</svg>
