<svg width="19" height="17" viewBox="0 0 19 17" fill="none" xmlns="http://www.w3.org/2000/svg">
<path d="M13.8779 2.06989C15.7072 2.06989 17.1706 3.56018 17.1706 5.42304C17.1706 7.2859 13.6035 11.3842 9.85345 14.551C6.10342 11.291 2.53632 7.19275 2.53632 5.42304C2.53632 3.56018 3.99974 2.06989 5.82903 2.06989C8.02417 2.06989 9.85345 4.86418 9.85345 4.86418C9.85345 4.86418 11.5913 2.06989 13.8779 2.06989ZM13.8779 0.207031C12.2315 0.207031 10.7681 1.04532 9.85345 2.34932C8.93881 1.04532 7.47538 0.207031 5.82903 0.207031C2.99364 0.207031 0.707031 2.53561 0.707031 5.42304C0.707031 9.52133 9.85345 16.9728 9.85345 16.9728C9.85345 16.9728 18.9999 9.52133 18.9999 5.42304C18.9999 2.53561 16.7133 0.207031 13.8779 0.207031Z" fill="#7A34A6"/>
</svg>
