<svg width="21" height="20" viewBox="0 0 21 20" fill="none" xmlns="http://www.w3.org/2000/svg">
<path d="M10.1702 10.8003C13.1862 10.8003 15.6324 8.40879 15.6324 5.46033C15.6324 2.51187 13.1862 0.136719 10.1702 0.136719C7.15428 0.136719 4.70801 2.52825 4.70801 5.46033C4.70801 8.39241 7.15428 10.8003 10.1702 10.8003ZM10.1702 1.52905C12.3819 1.52905 14.1915 3.29813 14.1915 5.46033C14.1915 7.62254 12.3819 9.39161 10.1702 9.39161C7.95853 9.39161 6.14896 7.62254 6.14896 5.46033C6.14896 3.29813 7.95853 1.52905 10.1702 1.52905Z" fill="#7A34A6"/>
<path d="M0.720478 19.1383H19.6875C20.0896 19.1383 20.408 18.8271 20.408 18.4339C20.408 14.7484 17.3417 11.7344 13.555 11.7344H6.85292C3.08298 11.7344 0 14.732 0 18.4339C0 18.8271 0.318351 19.1383 0.720478 19.1383ZM6.85292 13.1431H13.555C16.3029 13.1431 18.5649 15.1415 18.9167 17.7296H1.49122C1.84308 15.1579 4.10505 13.1431 6.85292 13.1431Z" fill="#7A34A6"/>
</svg>
