<svg width="43" height="43" viewBox="0 0 43 43" fill="none" xmlns="http://www.w3.org/2000/svg">
<path d="M38.3955 26.3674H10.3029C9.91028 26.3673 9.53135 26.2232 9.23785 25.9624C8.94436 25.7016 8.75667 25.3423 8.71035 24.9524L6.61725 7.31887C6.61725 7.3039 6.61725 7.28893 6.61725 7.27288L6.13382 3.20862H1.60431C1.17882 3.20862 0.770759 3.0396 0.469892 2.73873C0.169025 2.43787 0 2.0298 0 1.60431C0 1.17882 0.169025 0.770759 0.469892 0.469892C0.770759 0.169025 1.17882 8.20904e-08 1.60431 8.20904e-08H7.55096C7.94376 -0.000125507 8.32295 0.143857 8.61667 0.404657C8.91039 0.665457 9.09823 1.02495 9.14458 1.415L9.63015 5.50386H41.3955C41.6289 5.50384 41.8596 5.55475 42.0713 5.65304C42.283 5.75133 42.4707 5.89463 42.6213 6.07295C42.7719 6.25126 42.8818 6.4603 42.9433 6.68546C43.0048 6.91063 43.0164 7.1465 42.9774 7.37663L39.9827 25.0348C39.9184 25.4087 39.7237 25.7478 39.4331 25.9918C39.1425 26.2357 38.7749 26.3688 38.3955 26.3674ZM11.7286 23.1588H37.0404L39.4917 8.70928H10.0109L11.7286 23.1588Z" fill="#7A34A6"/>
<path d="M38.1293 32.1003H10.9833C10.5905 32.1004 10.2113 31.9565 9.91761 31.6957C9.62389 31.4349 9.43605 31.0754 9.3897 30.6853L7.61426 15.7449C7.58823 15.5351 7.60391 15.3223 7.6604 15.1186C7.71689 14.9149 7.81307 14.7244 7.94343 14.558C8.07379 14.3915 8.23574 14.2525 8.41999 14.1489C8.60424 14.0453 8.80715 13.9791 9.01705 13.9542C9.22696 13.9293 9.43972 13.946 9.64312 14.0036C9.84652 14.0611 10.0365 14.1583 10.2023 14.2895C10.368 14.4208 10.5061 14.5834 10.6088 14.7682C10.7115 14.953 10.7766 15.1562 10.8004 15.3663L12.4047 28.8917H38.1293C38.5548 28.8917 38.9629 29.0607 39.2638 29.3616C39.5646 29.6625 39.7337 30.0705 39.7337 30.496C39.7337 30.9215 39.5646 31.3296 39.2638 31.6304C38.9629 31.9313 38.5548 32.1003 38.1293 32.1003Z" fill="#7A34A6"/>
<path d="M33.799 42.6674C32.8578 42.6676 31.9377 42.3887 31.155 41.8659C30.3723 41.3431 29.7623 40.6 29.402 39.7305C29.0417 38.8609 28.9474 37.9041 29.1309 36.981C29.3145 36.0578 29.7677 35.2099 30.4333 34.5443C31.0988 33.8788 31.9468 33.4256 32.8699 33.242C33.793 33.0584 34.7499 33.1528 35.6194 33.5131C36.4889 33.8733 37.2321 34.4834 37.7548 35.2661C38.2776 36.0488 38.5565 36.9689 38.5563 37.9101C38.5549 39.1714 38.0532 40.3806 37.1614 41.2725C36.2695 42.1643 35.0603 42.666 33.799 42.6674ZM33.799 36.3571C33.4925 36.3569 33.1927 36.4476 32.9377 36.6178C32.6827 36.7879 32.4839 37.0299 32.3665 37.3131C32.249 37.5962 32.2181 37.9079 32.2778 38.2086C32.3375 38.5093 32.485 38.7855 32.7017 39.0024C32.9184 39.2192 33.1945 39.3669 33.4952 39.4268C33.7959 39.4867 34.1075 39.456 34.3908 39.3388C34.674 39.2215 34.9161 39.0229 35.0864 38.768C35.2568 38.5131 35.3477 38.2134 35.3477 37.9069C35.3466 37.4967 35.183 37.1037 34.8927 36.8138C34.6025 36.5239 34.2092 36.3609 33.799 36.3603V36.3571Z" fill="#7A34A6"/>
<path d="M14.6838 42.6674C13.7426 42.6676 12.8224 42.3887 12.0398 41.8659C11.2571 41.3431 10.647 40.6 10.2867 39.7305C9.92645 38.8609 9.83213 37.9041 10.0157 36.981C10.1993 36.0578 10.6525 35.2099 11.318 34.5443C11.9836 33.8788 12.8315 33.4256 13.7547 33.242C14.6778 33.0584 15.6346 33.1528 16.5042 33.5131C17.3737 33.8733 18.1168 34.4834 18.6396 35.2661C19.1624 36.0488 19.4413 36.9689 19.4411 37.9101C19.4397 39.1714 18.938 40.3806 18.0461 41.2725C17.1543 42.1643 15.9451 42.666 14.6838 42.6674ZM14.6838 36.3571C14.3772 36.3569 14.0775 36.4476 13.8225 36.6178C13.5675 36.7879 13.3687 37.0299 13.2512 37.3131C13.1338 37.5962 13.1029 37.9079 13.1626 38.2086C13.2223 38.5093 13.3698 38.7855 13.5865 39.0024C13.8032 39.2192 14.0793 39.3669 14.38 39.4268C14.6806 39.4867 14.9923 39.456 15.2755 39.3388C15.5588 39.2215 15.8009 39.0229 15.9712 38.768C16.1416 38.5131 16.2325 38.2134 16.2325 37.9069C16.2313 37.4967 16.0677 37.1037 15.7775 36.8138C15.4872 36.5239 15.094 36.3609 14.6838 36.3603V36.3571Z" fill="#7A34A6"/>
</svg>
