<svg width="44" height="41" viewBox="0 0 44 41" fill="none" xmlns="http://www.w3.org/2000/svg">
<path d="M21.516 23.0093C27.878 23.0093 33.0383 17.849 33.0383 11.487C33.0383 5.12495 27.878 0 21.516 0C15.154 0 9.99365 5.1603 9.99365 11.487C9.99365 17.8136 15.154 23.0093 21.516 23.0093ZM21.516 3.00428C26.1814 3.00428 29.9986 6.82149 29.9986 11.487C29.9986 16.1524 26.1814 19.9697 21.516 19.9697C16.8505 19.9697 13.0333 16.1524 13.0333 11.487C13.0333 6.82149 16.8505 3.00428 21.516 3.00428Z" fill="#7A34A6"/>
<path d="M1.58183 41H41.5918C42.4401 41 43.1116 40.3285 43.1116 39.4802C43.1116 31.5277 36.6436 25.0243 28.6557 25.0243H14.5179C6.5654 25.0243 0.0620117 31.4923 0.0620117 39.4802C0.0620117 40.3285 0.733558 41 1.58183 41ZM14.5179 28.0639H28.6557C34.4522 28.0639 39.2237 32.3759 39.966 37.9604H3.20767C3.94991 32.4113 8.72142 28.0639 14.5179 28.0639Z" fill="#7A34A6"/>
</svg>
