<svg width="37" height="40" viewBox="0 0 37 40" fill="none" xmlns="http://www.w3.org/2000/svg">
<path d="M8.4347 20.154C6.0947 20.154 4.2407 19.542 2.8727 18.318C1.5407 17.058 0.820695 15.33 0.712695 13.134C0.676695 12.522 0.658695 11.73 0.658695 10.758C0.658695 9.714 0.676695 8.868 0.712695 8.22C0.820695 5.988 1.5227 4.224 2.8187 2.928C4.1147 1.596 5.9867 0.929998 8.4347 0.929998C10.8827 0.929998 12.7547 1.596 14.0507 2.928C15.3827 4.224 16.1027 5.988 16.2107 8.22C16.2827 9.516 16.3187 10.362 16.3187 10.758C16.3187 11.118 16.2827 11.91 16.2107 13.134C16.1027 15.33 15.3647 17.058 13.9967 18.318C12.6287 19.542 10.7747 20.154 8.4347 20.154ZM3.8987 39C3.5747 39 3.3047 38.91 3.0887 38.73C2.8727 38.514 2.7647 38.244 2.7647 37.92C2.7647 37.704 2.8367 37.506 2.9807 37.326L29.6567 2.226C29.9447 1.83 30.1967 1.56 30.4127 1.416C30.6647 1.272 31.0067 1.2 31.4387 1.2H33.1667C33.4907 1.2 33.7427 1.308 33.9227 1.524C34.1387 1.704 34.2467 1.956 34.2467 2.28C34.2467 2.496 34.1747 2.694 34.0307 2.874L7.4087 37.974C7.1207 38.334 6.8507 38.604 6.5987 38.784C6.3827 38.928 6.0587 39 5.6267 39H3.8987ZM8.4347 16.86C9.7307 16.86 10.6847 16.482 11.2967 15.726C11.9087 14.97 12.2687 14.034 12.3767 12.918C12.4487 11.622 12.4847 10.866 12.4847 10.65C12.4847 10.326 12.4487 9.588 12.3767 8.436C12.3047 7.32 11.9447 6.384 11.2967 5.628C10.6847 4.836 9.7307 4.44 8.4347 4.44C7.1387 4.44 6.1847 4.836 5.5727 5.628C4.9607 6.384 4.6187 7.32 4.5467 8.436C4.5107 9.012 4.4927 9.75 4.4927 10.65C4.4927 11.514 4.5107 12.27 4.5467 12.918C4.6547 13.998 4.9967 14.934 5.5727 15.726C6.1847 16.482 7.1387 16.86 8.4347 16.86ZM28.5227 39.324C26.1827 39.324 24.3287 38.658 22.9607 37.326C21.6287 35.994 20.9087 34.23 20.8007 32.034C20.7287 30.954 20.6927 30.234 20.6927 29.874C20.6927 29.514 20.7287 28.614 20.8007 27.174C20.9087 24.942 21.6107 23.178 22.9067 21.882C24.2027 20.55 26.0747 19.884 28.5227 19.884C30.9707 19.884 32.8427 20.55 34.1387 21.882C35.4707 23.178 36.1907 24.942 36.2987 27.174C36.3707 28.47 36.4067 29.298 36.4067 29.658C36.4067 30.018 36.3707 30.81 36.2987 32.034C36.1907 34.23 35.4527 35.994 34.0847 37.326C32.7167 38.658 30.8627 39.324 28.5227 39.324ZM28.5227 35.814C29.8187 35.814 30.7727 35.436 31.3847 34.68C31.9967 33.924 32.3567 32.988 32.4647 31.872C32.5367 30.576 32.5727 29.802 32.5727 29.55C32.5727 29.262 32.5367 28.542 32.4647 27.39C32.3927 26.274 32.0327 25.338 31.3847 24.582C30.7727 23.79 29.8187 23.394 28.5227 23.394C27.2267 23.394 26.2727 23.79 25.6607 24.582C25.0487 25.338 24.7067 26.274 24.6347 27.39C24.5987 27.966 24.5807 28.686 24.5807 29.55C24.5807 30.45 24.5987 31.224 24.6347 31.872C24.7067 32.952 25.0487 33.888 25.6607 34.68C26.2727 35.436 27.2267 35.814 28.5227 35.814Z" fill="#7A34A6"/>
</svg>
