<svg width="47" height="47" viewBox="0 0 47 47" fill="none" xmlns="http://www.w3.org/2000/svg">
<path d="M36.702 11.2977H2.75391V45.2458H36.702V11.2977Z" stroke="#7A34A6" stroke-width="3" stroke-linecap="round" stroke-linejoin="round"/>
<path fill-rule="evenodd" clip-rule="evenodd" d="M20.6 17.1C16.4 17.1 12.68 19.38 10.76 22.86L8 20.1V27.9H15.8L12.44 24.54C14 21.54 17 19.5 20.6 19.5C25.52 19.5 29.6 23.58 29.6 28.5C29.6 33.42 25.52 37.5 20.6 37.5C16.64 37.5 13.4 34.98 12.08 31.5H9.56C10.88 36.3 15.32 39.9 20.6 39.9C26.96 39.9 32 34.74 32 28.5C32 22.26 26.84 17.1 20.6 17.1ZM18.8 23.1V29.22L24.44 32.58L25.4 31.02L20.6 28.14V23.1H18.8Z" fill="#7A34A6"/>
<path d="M44.2459 37.7023V3.75415H10.2979V11.2977" stroke="#7A34A6" stroke-width="3" stroke-linecap="round" stroke-linejoin="round"/>
<path d="M10.2974 3.75415L2.75391 11.2977" stroke="#7A34A6" stroke-width="3" stroke-linecap="round" stroke-linejoin="round"/>
<path d="M36.7021 11.2977L44.2456 3.75415" stroke="#7A34A6" stroke-width="3" stroke-linecap="round" stroke-linejoin="round"/>
<path d="M44.2456 37.7023L36.7021 45.2458" stroke="#7A34A6" stroke-width="3" stroke-linecap="round" stroke-linejoin="round"/>
</svg>
