<svg width="35" height="33" viewBox="0 0 35 33" fill="none" xmlns="http://www.w3.org/2000/svg">
<path d="M25.2 3.66667C28.7 3.66667 31.5 6.6 31.5 10.2667C31.5 13.9333 24.675 22 17.5 28.2333C10.325 21.8167 3.5 13.75 3.5 10.2667C3.5 6.6 6.3 3.66667 9.8 3.66667C14 3.66667 17.5 9.16667 17.5 9.16667C17.5 9.16667 20.825 3.66667 25.2 3.66667ZM25.2 0C22.05 0 19.25 1.65 17.5 4.21667C15.75 1.65 12.95 0 9.8 0C4.375 0 0 4.58333 0 10.2667C0 18.3333 17.5 33 17.5 33C17.5 33 35 18.3333 35 10.2667C35 4.58333 30.625 0 25.2 0Z" fill="#7A34A6"/>
</svg>
