<svg width="38" height="37" viewBox="0 0 38 37" fill="none" xmlns="http://www.w3.org/2000/svg">
<path d="M21.0923 3.55623C20.4338 1.52936 17.5663 1.52933 16.9077 3.55623L13.8624 12.9287H4.00761C1.87643 12.9287 0.9903 15.6558 2.71448 16.9085L10.6872 22.701L7.64187 32.0735C6.98329 34.1003 9.30314 35.7858 11.0273 34.5331L19 28.7406L26.9727 34.5331C28.6968 35.7858 31.0167 34.1003 30.3581 32.0735L27.3128 22.701L35.2855 16.9085C37.0097 15.6558 36.1236 12.9287 33.9924 12.9287H24.1376L21.0923 3.55623ZM27.2679 22.5628C27.268 22.563 27.268 22.5631 27.2681 22.5633L27.2679 22.5628Z" stroke="#7A34A6" stroke-width="2.4"/>
</svg>
