<svg width="41" height="41" viewBox="0 0 41 41" fill="none" xmlns="http://www.w3.org/2000/svg">
<mask id="path-1-outside-1" maskUnits="userSpaceOnUse" x="5.15625" y="0" width="30" height="32" fill="black">
<rect fill="white" x="5.15625" width="30" height="32"/>
<path d="M27.7306 28.1356C27.8588 28.1837 28.067 28.2477 28.3072 28.2317C28.6916 28.2157 29.0439 28.0556 29.3002 27.7993C29.5884 27.511 29.7326 27.1267 29.7326 26.7263C29.7006 24.3079 31.2381 22.1938 33.5283 21.4731C33.6884 21.4251 33.8486 21.345 33.9927 21.2329C34.3131 20.9927 34.5213 20.6403 34.5693 20.272C34.6334 19.8716 34.5373 19.4712 34.297 19.1349C32.8556 17.197 32.8396 14.5864 34.281 12.6485L34.4572 12.4243L34.5373 12.1841C34.6654 11.7997 34.6173 11.3833 34.4412 11.063C34.265 10.6946 33.9447 10.4224 33.5603 10.3102C31.2701 9.57353 29.7326 7.47548 29.7646 5.07313C29.7646 4.88095 29.7326 4.72079 29.6845 4.56063C29.5564 4.19228 29.2841 3.88798 28.9158 3.69579C28.5634 3.53563 28.163 3.5036 27.7947 3.63173C27.2341 3.82392 26.6416 3.92001 26.049 3.92001C24.2873 3.92001 22.6216 3.07118 21.6127 1.62978C21.5006 1.48563 21.3724 1.35751 21.2603 1.27743C20.5877 0.796963 19.6588 0.957119 19.1783 1.62978C18.1533 3.07118 16.5037 3.92001 14.742 3.92001C14.1334 3.92001 13.5568 3.82392 13.0123 3.63173C12.4998 3.45556 11.8431 3.58368 11.4588 3.98407C11.1705 4.27235 11.0263 4.65673 11.0263 5.0411C11.0584 7.45946 9.52087 9.57353 7.23063 10.2782C7.05446 10.3263 6.91032 10.4063 6.75016 10.5184C6.09352 11.0149 5.9654 11.9438 6.44587 12.6165C7.88727 14.5544 7.88727 17.1649 6.44587 19.1188C6.34977 19.247 6.26969 19.4071 6.22165 19.5513C6.10954 19.9356 6.14157 20.32 6.31774 20.7044C6.50993 21.0567 6.83024 21.313 7.18258 21.4251C9.48883 22.1618 11.0103 24.2759 10.9783 26.6462C10.9623 26.8384 10.9943 27.0145 11.0584 27.1907C11.1865 27.5591 11.4588 27.8634 11.8271 28.0556C12.1955 28.2157 12.5798 28.2477 12.9482 28.1196C13.5248 27.9274 14.1334 27.8313 14.7259 27.8313C16.5037 27.8313 18.1052 28.6642 19.1463 30.1216C19.2423 30.2497 19.3705 30.3778 19.4986 30.4739C19.7548 30.6501 20.0591 30.7462 20.3634 30.7462C20.4435 30.7462 20.5396 30.7462 20.6197 30.7302C21.0201 30.6661 21.3564 30.4419 21.5806 30.1216C22.974 28.1837 25.4404 27.3669 27.7306 28.1356ZM20.3474 29.1606C19.0341 27.3509 16.9361 26.2778 14.7099 26.2778C13.9732 26.2778 13.2205 26.3899 12.5318 26.6302C12.5318 23.5872 10.5939 20.9126 7.72712 19.9997C9.52087 17.5333 9.52087 14.2501 7.74313 11.7837C10.6259 10.8388 12.5478 8.19618 12.5638 5.15321C13.2525 5.37743 13.9732 5.48954 14.7099 5.48954C16.9361 5.48954 19.0502 4.41649 20.3634 2.62274C21.6767 4.41649 23.7908 5.48954 26.033 5.48954C26.7857 5.48954 27.5224 5.37743 28.1791 5.1372C28.1791 8.14813 30.0849 10.7907 32.9677 11.7677C31.19 14.2341 31.19 17.5013 32.9677 19.9837C30.0849 20.9286 28.1791 23.5712 28.163 26.6142C25.2642 25.6852 22.1572 26.6942 20.3474 29.1606Z"/>
</mask>
<path d="M27.7306 28.1356C27.8588 28.1837 28.067 28.2477 28.3072 28.2317C28.6916 28.2157 29.0439 28.0556 29.3002 27.7993C29.5884 27.511 29.7326 27.1267 29.7326 26.7263C29.7006 24.3079 31.2381 22.1938 33.5283 21.4731C33.6884 21.4251 33.8486 21.345 33.9927 21.2329C34.3131 20.9927 34.5213 20.6403 34.5693 20.272C34.6334 19.8716 34.5373 19.4712 34.297 19.1349C32.8556 17.197 32.8396 14.5864 34.281 12.6485L34.4572 12.4243L34.5373 12.1841C34.6654 11.7997 34.6173 11.3833 34.4412 11.063C34.265 10.6946 33.9447 10.4224 33.5603 10.3102C31.2701 9.57353 29.7326 7.47548 29.7646 5.07313C29.7646 4.88095 29.7326 4.72079 29.6845 4.56063C29.5564 4.19228 29.2841 3.88798 28.9158 3.69579C28.5634 3.53563 28.163 3.5036 27.7947 3.63173C27.2341 3.82392 26.6416 3.92001 26.049 3.92001C24.2873 3.92001 22.6216 3.07118 21.6127 1.62978C21.5006 1.48563 21.3724 1.35751 21.2603 1.27743C20.5877 0.796963 19.6588 0.957119 19.1783 1.62978C18.1533 3.07118 16.5037 3.92001 14.742 3.92001C14.1334 3.92001 13.5568 3.82392 13.0123 3.63173C12.4998 3.45556 11.8431 3.58368 11.4588 3.98407C11.1705 4.27235 11.0263 4.65673 11.0263 5.0411C11.0584 7.45946 9.52087 9.57353 7.23063 10.2782C7.05446 10.3263 6.91032 10.4063 6.75016 10.5184C6.09352 11.0149 5.9654 11.9438 6.44587 12.6165C7.88727 14.5544 7.88727 17.1649 6.44587 19.1188C6.34977 19.247 6.26969 19.4071 6.22165 19.5513C6.10954 19.9356 6.14157 20.32 6.31774 20.7044C6.50993 21.0567 6.83024 21.313 7.18258 21.4251C9.48883 22.1618 11.0103 24.2759 10.9783 26.6462C10.9623 26.8384 10.9943 27.0145 11.0584 27.1907C11.1865 27.5591 11.4588 27.8634 11.8271 28.0556C12.1955 28.2157 12.5798 28.2477 12.9482 28.1196C13.5248 27.9274 14.1334 27.8313 14.7259 27.8313C16.5037 27.8313 18.1052 28.6642 19.1463 30.1216C19.2423 30.2497 19.3705 30.3778 19.4986 30.4739C19.7548 30.6501 20.0591 30.7462 20.3634 30.7462C20.4435 30.7462 20.5396 30.7462 20.6197 30.7302C21.0201 30.6661 21.3564 30.4419 21.5806 30.1216C22.974 28.1837 25.4404 27.3669 27.7306 28.1356ZM20.3474 29.1606C19.0341 27.3509 16.9361 26.2778 14.7099 26.2778C13.9732 26.2778 13.2205 26.3899 12.5318 26.6302C12.5318 23.5872 10.5939 20.9126 7.72712 19.9997C9.52087 17.5333 9.52087 14.2501 7.74313 11.7837C10.6259 10.8388 12.5478 8.19618 12.5638 5.15321C13.2525 5.37743 13.9732 5.48954 14.7099 5.48954C16.9361 5.48954 19.0502 4.41649 20.3634 2.62274C21.6767 4.41649 23.7908 5.48954 26.033 5.48954C26.7857 5.48954 27.5224 5.37743 28.1791 5.1372C28.1791 8.14813 30.0849 10.7907 32.9677 11.7677C31.19 14.2341 31.19 17.5013 32.9677 19.9837C30.0849 20.9286 28.1791 23.5712 28.163 26.6142C25.2642 25.6852 22.1572 26.6942 20.3474 29.1606Z" fill="#7A34A6"/>
<path d="M27.7306 28.1356C27.8588 28.1837 28.067 28.2477 28.3072 28.2317C28.6916 28.2157 29.0439 28.0556 29.3002 27.7993C29.5884 27.511 29.7326 27.1267 29.7326 26.7263C29.7006 24.3079 31.2381 22.1938 33.5283 21.4731C33.6884 21.4251 33.8486 21.345 33.9927 21.2329C34.3131 20.9927 34.5213 20.6403 34.5693 20.272C34.6334 19.8716 34.5373 19.4712 34.297 19.1349C32.8556 17.197 32.8396 14.5864 34.281 12.6485L34.4572 12.4243L34.5373 12.1841C34.6654 11.7997 34.6173 11.3833 34.4412 11.063C34.265 10.6946 33.9447 10.4224 33.5603 10.3102C31.2701 9.57353 29.7326 7.47548 29.7646 5.07313C29.7646 4.88095 29.7326 4.72079 29.6845 4.56063C29.5564 4.19228 29.2841 3.88798 28.9158 3.69579C28.5634 3.53563 28.163 3.5036 27.7947 3.63173C27.2341 3.82392 26.6416 3.92001 26.049 3.92001C24.2873 3.92001 22.6216 3.07118 21.6127 1.62978C21.5006 1.48563 21.3724 1.35751 21.2603 1.27743C20.5877 0.796963 19.6588 0.957119 19.1783 1.62978C18.1533 3.07118 16.5037 3.92001 14.742 3.92001C14.1334 3.92001 13.5568 3.82392 13.0123 3.63173C12.4998 3.45556 11.8431 3.58368 11.4588 3.98407C11.1705 4.27235 11.0263 4.65673 11.0263 5.0411C11.0584 7.45946 9.52087 9.57353 7.23063 10.2782C7.05446 10.3263 6.91032 10.4063 6.75016 10.5184C6.09352 11.0149 5.9654 11.9438 6.44587 12.6165C7.88727 14.5544 7.88727 17.1649 6.44587 19.1188C6.34977 19.247 6.26969 19.4071 6.22165 19.5513C6.10954 19.9356 6.14157 20.32 6.31774 20.7044C6.50993 21.0567 6.83024 21.313 7.18258 21.4251C9.48883 22.1618 11.0103 24.2759 10.9783 26.6462C10.9623 26.8384 10.9943 27.0145 11.0584 27.1907C11.1865 27.5591 11.4588 27.8634 11.8271 28.0556C12.1955 28.2157 12.5798 28.2477 12.9482 28.1196C13.5248 27.9274 14.1334 27.8313 14.7259 27.8313C16.5037 27.8313 18.1052 28.6642 19.1463 30.1216C19.2423 30.2497 19.3705 30.3778 19.4986 30.4739C19.7548 30.6501 20.0591 30.7462 20.3634 30.7462C20.4435 30.7462 20.5396 30.7462 20.6197 30.7302C21.0201 30.6661 21.3564 30.4419 21.5806 30.1216C22.974 28.1837 25.4404 27.3669 27.7306 28.1356ZM20.3474 29.1606C19.0341 27.3509 16.9361 26.2778 14.7099 26.2778C13.9732 26.2778 13.2205 26.3899 12.5318 26.6302C12.5318 23.5872 10.5939 20.9126 7.72712 19.9997C9.52087 17.5333 9.52087 14.2501 7.74313 11.7837C10.6259 10.8388 12.5478 8.19618 12.5638 5.15321C13.2525 5.37743 13.9732 5.48954 14.7099 5.48954C16.9361 5.48954 19.0502 4.41649 20.3634 2.62274C21.6767 4.41649 23.7908 5.48954 26.033 5.48954C26.7857 5.48954 27.5224 5.37743 28.1791 5.1372C28.1791 8.14813 30.0849 10.7907 32.9677 11.7677C31.19 14.2341 31.19 17.5013 32.9677 19.9837C30.0849 20.9286 28.1791 23.5712 28.163 26.6142C25.2642 25.6852 22.1572 26.6942 20.3474 29.1606Z" stroke="#7A34A6" stroke-width="0.6" mask="url(#path-1-outside-1)"/>
<mask id="path-2-outside-2" maskUnits="userSpaceOnUse" x="12.1719" y="7.70874" width="16" height="16" fill="black">
<rect fill="white" x="12.1719" y="7.70874" width="16" height="16"/>
<path d="M26.8332 14.8107C24.3828 13.7857 22.4609 11.8798 21.4199 9.42944C21.2437 8.99702 20.8113 8.70874 20.3469 8.70874C19.8824 8.70874 19.45 8.99702 19.2738 9.41343C18.2328 11.8478 16.327 13.7537 13.8926 14.7947C13.4602 14.9708 13.1719 15.3873 13.1719 15.8517C13.1719 16.3162 13.4441 16.7326 13.8766 16.9248C16.2309 17.9498 18.1848 19.9357 19.2578 22.3701C19.45 22.8025 19.8664 23.0748 20.3148 23.0748C20.7793 23.0748 21.1957 22.8025 21.3719 22.3701C22.3969 19.9998 24.3828 18.0298 26.8332 16.9408C27.2496 16.7486 27.5219 16.3322 27.5219 15.8677C27.5379 15.4033 27.2656 14.9869 26.8332 14.8107ZM20.3309 20.9767C19.1777 18.7986 17.4 17.0048 15.2859 15.8677C17.4641 14.7466 19.2258 13.0009 20.3469 10.8228C21.468 13.0169 23.2457 14.7787 25.4398 15.8837C23.2457 17.0529 21.452 18.8466 20.3309 20.9767Z"/>
</mask>
<path d="M26.8332 14.8107C24.3828 13.7857 22.4609 11.8798 21.4199 9.42944C21.2437 8.99702 20.8113 8.70874 20.3469 8.70874C19.8824 8.70874 19.45 8.99702 19.2738 9.41343C18.2328 11.8478 16.327 13.7537 13.8926 14.7947C13.4602 14.9708 13.1719 15.3873 13.1719 15.8517C13.1719 16.3162 13.4441 16.7326 13.8766 16.9248C16.2309 17.9498 18.1848 19.9357 19.2578 22.3701C19.45 22.8025 19.8664 23.0748 20.3148 23.0748C20.7793 23.0748 21.1957 22.8025 21.3719 22.3701C22.3969 19.9998 24.3828 18.0298 26.8332 16.9408C27.2496 16.7486 27.5219 16.3322 27.5219 15.8677C27.5379 15.4033 27.2656 14.9869 26.8332 14.8107ZM20.3309 20.9767C19.1777 18.7986 17.4 17.0048 15.2859 15.8677C17.4641 14.7466 19.2258 13.0009 20.3469 10.8228C21.468 13.0169 23.2457 14.7787 25.4398 15.8837C23.2457 17.0529 21.452 18.8466 20.3309 20.9767Z" fill="#7A34A6"/>
<path d="M26.8332 14.8107C24.3828 13.7857 22.4609 11.8798 21.4199 9.42944C21.2437 8.99702 20.8113 8.70874 20.3469 8.70874C19.8824 8.70874 19.45 8.99702 19.2738 9.41343C18.2328 11.8478 16.327 13.7537 13.8926 14.7947C13.4602 14.9708 13.1719 15.3873 13.1719 15.8517C13.1719 16.3162 13.4441 16.7326 13.8766 16.9248C16.2309 17.9498 18.1848 19.9357 19.2578 22.3701C19.45 22.8025 19.8664 23.0748 20.3148 23.0748C20.7793 23.0748 21.1957 22.8025 21.3719 22.3701C22.3969 19.9998 24.3828 18.0298 26.8332 16.9408C27.2496 16.7486 27.5219 16.3322 27.5219 15.8677C27.5379 15.4033 27.2656 14.9869 26.8332 14.8107ZM20.3309 20.9767C19.1777 18.7986 17.4 17.0048 15.2859 15.8677C17.4641 14.7466 19.2258 13.0009 20.3469 10.8228C21.468 13.0169 23.2457 14.7787 25.4398 15.8837C23.2457 17.0529 21.452 18.8466 20.3309 20.9767Z" stroke="#7A34A6" stroke-width="0.6" mask="url(#path-2-outside-2)"/>
<mask id="path-3-outside-3" maskUnits="userSpaceOnUse" x="0" y="23.6768" width="17" height="18" fill="black">
<rect fill="white" y="23.6768" width="17" height="18"/>
<path d="M15.6543 30.2978C15.2859 30.0576 14.8055 30.1697 14.5652 30.522L10.3691 36.9443L8.27109 32.6361L3.89883 32.6201L8.28711 25.8935C8.52734 25.5252 8.41524 25.0447 8.06289 24.8045C7.69453 24.5642 7.21406 24.6763 6.97383 25.0287L1 34.1896L7.29414 34.2056L10.177 40.1154L15.8785 31.3869C16.1188 31.0185 16.0227 30.522 15.6543 30.2978Z"/>
</mask>
<path d="M15.6543 30.2978C15.2859 30.0576 14.8055 30.1697 14.5652 30.522L10.3691 36.9443L8.27109 32.6361L3.89883 32.6201L8.28711 25.8935C8.52734 25.5252 8.41524 25.0447 8.06289 24.8045C7.69453 24.5642 7.21406 24.6763 6.97383 25.0287L1 34.1896L7.29414 34.2056L10.177 40.1154L15.8785 31.3869C16.1188 31.0185 16.0227 30.522 15.6543 30.2978Z" fill="#7A34A6"/>
<path d="M15.6543 30.2978C15.2859 30.0576 14.8055 30.1697 14.5652 30.522L10.3691 36.9443L8.27109 32.6361L3.89883 32.6201L8.28711 25.8935C8.52734 25.5252 8.41524 25.0447 8.06289 24.8045C7.69453 24.5642 7.21406 24.6763 6.97383 25.0287L1 34.1896L7.29414 34.2056L10.177 40.1154L15.8785 31.3869C16.1188 31.0185 16.0227 30.522 15.6543 30.2978Z" stroke="#7A34A6" stroke-width="0.6" mask="url(#path-3-outside-3)"/>
<mask id="path-4-outside-4" maskUnits="userSpaceOnUse" x="23.6992" y="23.6726" width="17" height="18" fill="black">
<rect fill="white" x="23.6992" y="23.6726" width="17" height="18"/>
<path d="M33.7357 25.0286C33.4954 24.6602 33.015 24.5641 32.6466 24.8044C32.2783 25.0446 32.1822 25.5251 32.4224 25.8934L36.8267 32.62L32.4384 32.636L30.3404 36.9442L26.1443 30.522C25.904 30.1536 25.4236 30.0575 25.0552 30.2977C24.6869 30.538 24.5908 31.0184 24.831 31.3868L30.5486 40.1153L33.4314 34.2056L39.7255 34.1895L33.7357 25.0286Z"/>
</mask>
<path d="M33.7357 25.0286C33.4954 24.6602 33.015 24.5641 32.6466 24.8044C32.2783 25.0446 32.1822 25.5251 32.4224 25.8934L36.8267 32.62L32.4384 32.636L30.3404 36.9442L26.1443 30.522C25.904 30.1536 25.4236 30.0575 25.0552 30.2977C24.6869 30.538 24.5908 31.0184 24.831 31.3868L30.5486 40.1153L33.4314 34.2056L39.7255 34.1895L33.7357 25.0286Z" fill="#7A34A6"/>
<path d="M33.7357 25.0286C33.4954 24.6602 33.015 24.5641 32.6466 24.8044C32.2783 25.0446 32.1822 25.5251 32.4224 25.8934L36.8267 32.62L32.4384 32.636L30.3404 36.9442L26.1443 30.522C25.904 30.1536 25.4236 30.0575 25.0552 30.2977C24.6869 30.538 24.5908 31.0184 24.831 31.3868L30.5486 40.1153L33.4314 34.2056L39.7255 34.1895L33.7357 25.0286Z" stroke="#7A34A6" stroke-width="0.6" mask="url(#path-4-outside-4)"/>
</svg>
