<svg width="29" height="30" viewBox="0 0 29 30" fill="none" xmlns="http://www.w3.org/2000/svg">
<path d="M6.68 15.08C4.92 15.08 3.50667 14.6133 2.44 13.68C1.4 12.7467 0.826667 11.48 0.72 9.88C0.693333 9.42667 0.68 8.82667 0.68 8.08C0.68 7.28 0.693333 6.64 0.72 6.16C0.826667 4.50667 1.38667 3.2 2.4 2.24C3.41333 1.28 4.84 0.799998 6.68 0.799998C8.52 0.799998 9.94667 1.28 10.96 2.24C12 3.2 12.5733 4.50667 12.68 6.16C12.7333 7.12 12.76 7.76 12.76 8.08C12.76 8.37333 12.7333 8.97333 12.68 9.88C12.5733 11.48 11.9867 12.7467 10.92 13.68C9.88 14.6133 8.46667 15.08 6.68 15.08ZM3.44 29C3.17333 29 2.96 28.9333 2.8 28.8C2.64 28.64 2.56 28.44 2.56 28.2C2.56 28.04 2.61333 27.8933 2.72 27.76L22.44 1.76C22.6533 1.49333 22.8533 1.30666 23.04 1.2C23.2267 1.06666 23.4933 0.999998 23.84 0.999998H25.96C26.2267 0.999998 26.4267 1.08 26.56 1.24C26.72 1.37333 26.8 1.56 26.8 1.8C26.8 1.96 26.7467 2.10667 26.64 2.24L6.92 28.24C6.70667 28.5067 6.50667 28.7067 6.32 28.84C6.13333 28.9467 5.88 29 5.56 29H3.44ZM6.68 12.08C7.45333 12.08 8.01333 11.8533 8.36 11.4C8.73333 10.9467 8.96 10.3733 9.04 9.68C9.09333 8.77333 9.12 8.21333 9.12 8C9.12 7.70667 9.09333 7.16 9.04 6.36C8.98667 5.66667 8.77333 5.09333 8.4 4.64C8.02667 4.16 7.45333 3.92 6.68 3.92C5.93333 3.92 5.37333 4.16 5 4.64C4.62667 5.09333 4.41333 5.66667 4.36 6.36C4.33333 6.76 4.32 7.30667 4.32 8C4.32 8.66667 4.33333 9.22667 4.36 9.68C4.41333 10.3467 4.61333 10.92 4.96 11.4C5.33333 11.8533 5.90667 12.08 6.68 12.08ZM22.68 29.24C20.92 29.24 19.5067 28.76 18.44 27.8C17.4 26.8133 16.8267 25.5067 16.72 23.88C16.6933 23.4267 16.68 22.8267 16.68 22.08C16.68 21.3067 16.6933 20.68 16.72 20.2C16.8267 18.5467 17.3867 17.24 18.4 16.28C19.4133 15.32 20.84 14.84 22.68 14.84C24.5467 14.84 25.9867 15.32 27 16.28C28.0133 17.24 28.5733 18.5467 28.68 20.2C28.7333 21.16 28.76 21.7867 28.76 22.08C28.76 22.3733 28.7333 22.9733 28.68 23.88C28.5733 25.5067 27.9867 26.8133 26.92 27.8C25.88 28.76 24.4667 29.24 22.68 29.24ZM22.68 26.12C23.48 26.12 24.0533 25.8933 24.4 25.44C24.7733 24.96 24.9867 24.3867 25.04 23.72C25.0933 22.8133 25.12 22.24 25.12 22C25.12 21.7333 25.0933 21.2 25.04 20.4C24.9867 19.7067 24.7733 19.1333 24.4 18.68C24.0267 18.2 23.4533 17.96 22.68 17.96C21.9333 17.96 21.3733 18.2 21 18.68C20.6267 19.1333 20.4133 19.7067 20.36 20.4C20.3333 20.8 20.32 21.3333 20.32 22C20.32 22.6933 20.3333 23.2667 20.36 23.72C20.4133 24.3867 20.6133 24.96 20.96 25.44C21.3333 25.8933 21.9067 26.12 22.68 26.12Z" fill="#7A34A6"/>
</svg>
