<svg width="44" height="31" viewBox="0 0 44 31" fill="none" xmlns="http://www.w3.org/2000/svg">
<g clip-path="url(#clip0)">
<path d="M1.93169 23.2938C0.0836111 24.3691 -0.249887 26.6584 0.150911 28.0473C0.539694 29.3943 1.91011 31 4.37619 31H4.38172C4.38172 31 36.179 31 39.3855 31C42.1467 31 43.4057 29.4391 43.7944 28.0921C44.1952 26.7032 44.1952 24.5526 42.0576 23.2533L23.5204 12.4639V10.6269C23.5204 8.54343 21.2156 7.63899 21.2156 7.63899C19.7239 6.92209 19.8574 5.37646 19.8574 5.37646C19.8574 3.56203 21.5052 2.97953 22.2398 2.97953C23.4734 2.97953 24.6832 3.65413 24.8109 5.19726C25.0114 7.61669 27.7912 7.00262 27.7912 5.05878C27.7912 3.22195 26.0921 0 22.2176 0C18.0293 0 16.8264 4.03846 16.8264 5.31537C16.8264 6.27849 16.9808 7.16784 17.5835 8.1828C18.6077 9.90773 20.6575 10.1788 20.6575 11.3213V12.4639L1.93169 23.2938Z" fill="#7A34A6"/>
<path d="M21.9722 15.2335L40.1336 25.7004C41.26 26.4872 40.6499 27.9682 39.4297 27.9707H4.43118C3.29214 28.0145 2.58817 26.4409 3.71453 25.7467L21.9722 15.2335Z" fill="white"/>
</g>
<defs>
<clipPath id="clip0">
<rect width="44" height="31" fill="white"/>
</clipPath>
</defs>
</svg>
