<svg width="34" height="35" viewBox="0 0 34 35" fill="none" xmlns="http://www.w3.org/2000/svg">
<path d="M6.36238 22.0803V23.1578C6.36238 24.4496 4.39741 24.4496 4.39741 23.1578V22.0835C3.10846 21.6589 2.20883 20.4401 2.20883 19.0702C2.20883 17.1626 2.21212 15.2626 2.21212 13.3542C2.21212 10.5823 4.34986 8.28545 7.05911 8.03124V3.29676C7.05911 2.71113 7.52469 2.31475 8.09385 2.31475H8.87296V0.968833C8.87296 -0.322944 10.8365 -0.322944 10.8365 0.968833V2.31475H11.6641C12.205 2.31475 12.6452 2.75585 12.6452 3.29676V8.00817H29.7113C30.3266 8.00817 30.6924 8.49306 30.6924 9.07586H33.018C33.6031 9.07586 34 9.53957 34 10.1101V15.7697C34 16.3558 33.5368 16.7521 32.9653 16.7521H30.6924C30.6924 17.3797 30.304 17.8161 29.6591 17.8161H29.3338V25.4923H30.2287C30.8139 25.4923 31.2103 25.957 31.2103 26.5266V33.9765C31.2103 34.5612 30.7466 34.9585 30.1779 34.9585H0.982956C0.396854 34.9585 0 34.4938 0 33.9251V26.4753C0 25.8901 0.464173 25.4923 1.0338 25.4923H19.2717V17.8161H8.54719V19.0702C8.54719 20.4401 7.65557 21.6519 6.36238 22.0803ZM24.5988 17.8161V25.4923H27.3702V17.8161H24.5988ZM22.7276 25.4923V17.8161H21.2343V25.4923H22.7276ZM18.2718 9.97314V12.2596C18.2718 12.8453 17.8062 13.2412 17.2375 13.2412H13.4092C12.8246 13.2412 12.4272 12.7775 12.4272 12.2083V9.97314H7.55859C5.69672 9.97314 4.17568 11.4942 4.17568 13.3542V15.853C12.3599 15.853 20.5446 15.853 28.7279 15.853C28.7279 13.8927 28.7279 11.9315 28.7279 9.97314H25.9029V12.2596C25.9029 12.8453 25.4396 13.2412 24.8695 13.2412H21.0408C20.4566 13.2412 20.0597 12.7775 20.0597 12.2083V9.97314H18.2718ZM14.3913 9.97314V11.2772H16.3063V9.97314H14.3913ZM22.0238 9.97314V11.2772H23.9384V9.97314H22.0238ZM10.6821 4.27831H9.02455V7.9851H10.6821V4.27831ZM30.6924 11.0404V14.7881H32.0364V11.0404H30.6924ZM4.17427 17.8161V19.0702C4.17427 20.6218 6.58364 20.6882 6.58364 19.0702V17.8161H4.17427ZM29.2467 27.4578C20.152 27.4578 11.0587 27.4578 1.96403 27.4578V32.994H29.2467V27.4578Z" fill="#7A34A6"/>
</svg>
