<svg width="41" height="20" viewBox="0 0 41 20" fill="none" xmlns="http://www.w3.org/2000/svg">
<path d="M38.1143 3.68234C37.9453 3.44088 37.6676 3.296 37.3778 3.296H31.7638V0.905494C31.7638 0.410491 31.3533 0 30.8583 0H10.5149C10.0199 0 9.60938 0.410491 9.60938 0.905494V15.5383C9.60938 16.0333 10.0199 16.4438 10.5149 16.4438H13.0744C13.5453 18.0857 15.0665 19.3051 16.8533 19.3051C18.6402 19.3051 20.1614 18.0978 20.6323 16.4438H30.6651C31.136 18.0857 32.6572 19.3051 34.444 19.3051C36.2309 19.3051 37.7521 18.0978 38.223 16.4438H40.0943C40.5893 16.4438 40.9998 16.0333 40.9998 15.5383V8.08908C40.9998 7.89591 40.9395 7.71481 40.8308 7.56993L38.1143 3.68234ZM39.2009 8.35469H35.1443V5.11906H36.9191L39.2009 8.35469ZM11.4204 1.82306H29.9528V14.6449H20.7168C20.3666 12.8218 18.773 11.4454 16.8533 11.4454C14.9337 11.4454 13.3279 12.8218 12.9899 14.6449H11.4204V1.82306ZM16.8533 17.4941C15.6822 17.4941 14.7284 16.5404 14.7284 15.3692C14.7284 14.1981 15.6822 13.2444 16.8533 13.2444C18.0244 13.2444 18.9782 14.1981 18.9782 15.3692C18.9782 16.5404 18.0244 17.4941 16.8533 17.4941ZM34.4561 17.4941C33.285 17.4941 32.3312 16.5404 32.3312 15.3692C32.3312 14.1981 33.285 13.2444 34.4561 13.2444C35.6272 13.2444 36.581 14.1981 36.581 15.3692C36.581 16.5404 35.6272 17.4941 34.4561 17.4941ZM38.3196 14.6449C37.9694 12.8218 36.3758 11.4454 34.4561 11.4454C33.4178 11.4454 32.464 11.8559 31.7638 12.52V5.11906H33.3212V9.26018C33.3212 9.75519 33.7317 10.1657 34.2267 10.1657H39.213V14.6449H38.3196Z" fill="#7A34A6"/>
<path d="M0.905494 1.82271H7.36468C7.85969 1.82271 8.27018 1.41222 8.27018 0.917212C8.27018 0.422209 7.85969 0.0117188 7.36468 0.0117188H0.905494C0.41049 0.0117188 0 0.422209 0 0.917212C0 1.41222 0.41049 1.82271 0.905494 1.82271Z" fill="#7A34A6"/>
<path d="M7.36405 3.30811H2.38987C1.89487 3.30811 1.48438 3.7186 1.48438 4.2136C1.48438 4.7086 1.89487 5.11909 2.38987 5.11909H7.36405C7.85905 5.11909 8.26954 4.7086 8.26954 4.2136C8.26954 3.7186 7.87112 3.30811 7.36405 3.30811Z" fill="#7A34A6"/>
<path d="M7.36485 6.60382H4.22581C3.7308 6.60382 3.32031 7.01431 3.32031 7.50931C3.32031 8.00432 3.7308 8.41481 4.22581 8.41481H7.36485C7.85986 8.41481 8.27035 8.00432 8.27035 7.50931C8.27035 7.01431 7.87193 6.60382 7.36485 6.60382Z" fill="#7A34A6"/>
<path d="M7.36318 9.90021H6.27659C5.78158 9.90021 5.37109 10.3107 5.37109 10.8057C5.37109 11.3007 5.78158 11.7112 6.27659 11.7112H7.36318C7.85818 11.7112 8.26867 11.3007 8.26867 10.8057C8.26867 10.3107 7.87026 9.90021 7.36318 9.90021Z" fill="#7A34A6"/>
</svg>
