<svg width="31" height="30" viewBox="0 0 31 30" fill="none" xmlns="http://www.w3.org/2000/svg">
<path d="M0.701497 1.39364H4.80759L6.92144 7.53875L8.04383 11.2614V11.2707L9.42812 15.8632C9.42812 15.8725 9.43747 15.8819 9.43747 15.8912L10.2886 18.7066H9.96126C8.26831 18.7066 6.89338 20.0815 6.89338 21.7745C6.89338 23.4674 8.26831 24.8423 9.96126 24.8423H11.4858C11.224 25.2819 11.0649 25.7964 11.0649 26.3389C11.0649 27.9383 12.3651 29.2384 13.9645 29.2384C15.5639 29.2384 16.864 27.9383 16.864 26.3389C16.864 25.787 16.7143 25.2819 16.4431 24.8423H22.0083C21.7464 25.2819 21.5874 25.7964 21.5874 26.3389C21.5874 27.9383 22.8875 29.2384 24.4869 29.2384C26.0863 29.2384 27.3864 27.9383 27.3864 26.3389C27.3864 25.787 27.2368 25.2819 26.9655 24.8423H28.2282C28.6117 24.8423 28.9297 24.5243 28.9297 24.1408C28.9297 23.7574 28.6117 23.4394 28.2282 23.4394H9.9519C9.03528 23.4394 8.28702 22.6911 8.28702 21.7745C8.28702 20.8578 9.03528 20.1096 9.9519 20.1096H11.224H14.8717H23.0091H26.6569C26.9655 20.1096 27.2368 19.9038 27.3303 19.6139L28.4527 15.8912C28.4527 15.8819 28.4527 15.8819 28.4527 15.8725L30.9688 7.5294C31.0342 7.31427 30.9968 7.0898 30.8565 6.91208C30.7162 6.73437 30.5198 6.63148 30.2953 6.63148H25.3287C25.3287 6.63148 25.3287 6.63148 25.3194 6.63148H18.9311H12.5428H12.5334H8.07189L5.95805 0.477018C5.86451 0.196419 5.59327 0 5.29396 0H0.701497C0.318012 0 0 0.318012 0 0.701497C0 1.08498 0.318012 1.39364 0.701497 1.39364ZM15.461 26.3295C15.461 27.1526 14.7876 27.826 13.9645 27.826C13.1414 27.826 12.4679 27.1526 12.4679 26.3295C12.4679 25.5064 13.1414 24.833 13.9645 24.833C14.7876 24.833 15.461 25.5064 15.461 26.3295ZM25.9928 26.3295C25.9928 27.1526 25.3194 27.826 24.4963 27.826C23.6732 27.826 22.9997 27.1526 22.9997 26.3295C22.9997 25.5064 23.6732 24.833 24.4963 24.833C25.3194 24.833 25.9928 25.5064 25.9928 26.3295ZM27.2742 14.9559H24.5898L25.2071 11.7571H28.2376L27.2742 14.9559ZM23.1588 14.9559H19.6513V11.7571H23.7854L23.1588 14.9559ZM19.6513 18.6972V16.3589H22.8875L22.4386 18.6972H19.6513ZM15.461 18.6972L15.012 16.3589H18.2483V18.6972H15.461ZM11.0462 16.3589H13.581L14.0299 18.6972H11.7477L11.0462 16.3589ZM19.6513 10.3541V8.01577H24.5056L24.0567 10.3541H19.6513ZM18.2483 10.3541H13.8429L13.3939 8.01577H18.2483V10.3541ZM18.2483 11.7571V14.9559H14.7408L14.1235 11.7571H18.2483ZM13.3097 14.9559H10.6253L9.66195 11.7571H12.6924L13.3097 14.9559ZM26.1518 18.6972H23.8696L24.3186 16.3589H26.8533L26.1518 18.6972ZM28.6678 10.3541H25.4877L25.9367 8.01577H29.3693L28.6678 10.3541ZM11.9629 8.01577L12.4118 10.3541H9.2317L8.5302 8.01577H11.9629Z" fill="#7A34A6"/>
</svg>
