<svg width="30" height="20" viewBox="0 0 30 20" fill="none" xmlns="http://www.w3.org/2000/svg">
<path d="M26.6493 0H2.36287C1.7362 0 1.13519 0.252804 0.692069 0.702799C0.248945 1.15279 0 1.76312 0 2.39951L0 17.6005C0 17.9156 0.0611175 18.2276 0.179863 18.5187C0.298608 18.8099 0.472656 19.0744 0.692069 19.2972C0.911482 19.52 1.17196 19.6968 1.45864 19.8173C1.74532 19.9379 2.05258 20 2.36287 20H26.6493C27.276 20 27.877 19.7472 28.3201 19.2972C28.7632 18.8472 29.0122 18.2369 29.0122 17.6005V2.39951C29.0122 1.76312 28.7632 1.15279 28.3201 0.702799C27.877 0.252804 27.276 0 26.6493 0V0ZM1.21798 4.61348H27.782V7.53247H1.21798V4.61348ZM2.36287 1.23686H26.6493C26.953 1.23686 27.2442 1.35935 27.4589 1.57739C27.6736 1.79543 27.7942 2.09115 27.7942 2.39951V3.37662H1.21798V2.39951C1.21798 2.09115 1.3386 1.79543 1.55331 1.57739C1.76802 1.35935 2.05923 1.23686 2.36287 1.23686ZM26.6493 18.7631H2.36287C2.05923 18.7631 1.76802 18.6406 1.55331 18.4226C1.3386 18.2046 1.21798 17.9088 1.21798 17.6005V8.76933H27.782V17.5881C27.7836 17.7408 27.7556 17.8923 27.6996 18.034C27.6435 18.1757 27.5605 18.3048 27.4553 18.4139C27.3501 18.523 27.2248 18.61 27.0865 18.6699C26.9482 18.7299 26.7997 18.7615 26.6493 18.7631Z" fill="#7A34A6"/>
<path d="M23.6636 12.1089C23.3318 12.1089 23.0038 12.1806 22.7014 12.3192C22.399 12.4578 22.1291 12.6602 21.9097 12.9129C21.5913 12.5475 21.1709 12.2894 20.7044 12.173C20.2379 12.0565 19.7475 12.0872 19.2986 12.2609C18.8497 12.4347 18.4636 12.7433 18.1919 13.1455C17.9201 13.5478 17.7755 14.0246 17.7774 14.5124C17.7792 15.0003 17.9275 15.4759 18.2024 15.876C18.4772 16.2761 18.8657 16.5816 19.3159 16.7518C19.7661 16.922 20.2567 16.9488 20.7223 16.8286C21.1878 16.7085 21.6063 16.447 21.9219 16.0792C22.1836 16.375 22.514 16.5998 22.8831 16.733C23.2521 16.8661 23.6481 16.9036 24.035 16.8419C24.4219 16.7802 24.7875 16.6213 25.0986 16.3797C25.4096 16.138 25.6563 15.8213 25.8162 15.4582C25.9761 15.0951 26.0441 14.6972 26.0141 14.3007C25.9841 13.9041 25.857 13.5215 25.6443 13.1875C25.4316 12.8535 25.1402 12.5788 24.7964 12.3882C24.4526 12.1977 24.0674 12.0974 23.6757 12.0965L23.6636 12.1089ZM20.168 15.6587C19.9415 15.6587 19.7202 15.5905 19.5319 15.4627C19.3436 15.335 19.1969 15.1534 19.1102 14.941C19.0236 14.7285 19.0009 14.4947 19.0451 14.2692C19.0892 14.0437 19.1983 13.8365 19.3584 13.6739C19.5185 13.5113 19.7225 13.4006 19.9446 13.3557C20.1667 13.3109 20.3969 13.3339 20.6061 13.4219C20.8153 13.5099 20.9941 13.6589 21.1199 13.8501C21.2457 14.0413 21.3129 14.2661 21.3129 14.496C21.3129 14.8044 21.1922 15.1001 20.9775 15.3181C20.7628 15.5362 20.4716 15.6587 20.168 15.6587ZM23.6636 15.6587C23.4371 15.6587 23.2158 15.5905 23.0275 15.4627C22.8392 15.335 22.6925 15.1534 22.6058 14.941C22.5192 14.7285 22.4965 14.4947 22.5407 14.2692C22.5848 14.0437 22.6939 13.8365 22.854 13.6739C23.0141 13.5113 23.2181 13.4006 23.4402 13.3557C23.6623 13.3109 23.8925 13.3339 24.1017 13.4219C24.3109 13.5099 24.4897 13.6589 24.6155 13.8501C24.7413 14.0413 24.8085 14.2661 24.8085 14.496C24.8085 14.8044 24.6878 15.1001 24.4731 15.3181C24.2584 15.5362 23.9672 15.6587 23.6636 15.6587Z" fill="#7A34A6"/>
</svg>
