<svg width="40" height="40" viewBox="0 0 40 40" fill="none" xmlns="http://www.w3.org/2000/svg">
<path d="M38.4515 11.902C38.4522 11.8851 38.4612 11.8709 38.4612 11.8539C38.4612 11.7984 38.4371 11.7507 38.4295 11.6971C38.4182 11.6167 38.4099 11.5385 38.3821 11.4623C38.3562 11.3915 38.3168 11.3318 38.2782 11.2682C38.2404 11.2052 38.2064 11.1429 38.1565 11.0875C38.1019 11.0271 38.0364 10.983 37.9703 10.9351C37.9267 10.9034 37.8958 10.8599 37.8467 10.8338L20.539 1.67215C20.5056 1.65459 20.4689 1.65553 20.4348 1.64154C20.3626 1.61178 20.2915 1.59187 20.2148 1.57703C20.1419 1.56314 20.0722 1.55356 19.9992 1.55384C19.9263 1.55356 19.8568 1.56304 19.784 1.57694C19.7067 1.59177 19.6349 1.61196 19.5623 1.64211C19.5288 1.65591 19.4929 1.65497 19.4603 1.67215L2.15257 10.8338C2.10346 10.8599 2.07257 10.9034 2.0289 10.9351C1.9628 10.983 1.89735 11.0271 1.84279 11.0875C1.79284 11.1429 1.75885 11.2052 1.721 11.2682C1.68241 11.3318 1.64307 11.3915 1.61715 11.4623C1.58936 11.5385 1.581 11.6167 1.56973 11.6971C1.56212 11.7507 1.53809 11.7984 1.53809 11.8539C1.53809 11.8709 1.54701 11.8851 1.54776 11.902C1.55086 11.9784 1.57461 12.0512 1.59321 12.1269C1.61208 12.2022 1.62504 12.2774 1.6579 12.3461C1.66513 12.3614 1.66382 12.3782 1.6718 12.3933C1.68645 12.421 1.7165 12.4315 1.73302 12.4575C1.81481 12.5867 1.91707 12.6937 2.04186 12.7815C2.08346 12.8106 2.11876 12.8403 2.16356 12.8636C2.32384 12.948 2.49822 13.0078 2.69193 13.0078H37.3073C37.501 13.0078 37.6754 12.948 37.8357 12.8636C37.8805 12.8403 37.9158 12.8106 37.9574 12.7815C38.0822 12.6937 38.1844 12.5867 38.2662 12.4575C38.2827 12.4315 38.3128 12.421 38.3274 12.3933C38.3354 12.3782 38.3341 12.3614 38.3413 12.3461C38.3742 12.2774 38.3872 12.2022 38.406 12.1269C38.4246 12.0512 38.4484 11.9784 38.4515 11.902ZM19.9996 3.99797L32.661 10.7001H7.33821L19.9996 3.99797Z" fill="#7A34A6"/>
<path d="M15.8525 29.9384C15.8525 30.5754 16.3694 31.0922 17.0064 31.0922H22.992C23.629 31.0922 24.1458 30.5754 24.1458 29.9384C24.1458 29.4452 23.833 29.0315 23.3976 28.8665V16.4609C23.833 16.296 24.1458 15.8822 24.1458 15.3891C24.1458 14.7521 23.629 14.2352 22.992 14.2352H17.0064C16.3694 14.2352 15.8525 14.7521 15.8525 15.3891C15.8525 15.8822 16.1653 16.296 16.6007 16.4609V28.8665C16.1653 29.0315 15.8525 29.4452 15.8525 29.9384ZM18.9084 28.7845V16.5429H21.0899V28.7845H18.9084Z" fill="#7A34A6"/>
<path d="M5.87695 29.9384C5.87695 30.5754 6.39378 31.0922 7.0308 31.0922H13.0164C13.6534 31.0922 14.1702 30.5754 14.1702 29.9384C14.1702 29.4452 13.8574 29.0315 13.422 28.8665V16.4609C13.8574 16.296 14.1702 15.8822 14.1702 15.3891C14.1702 14.7521 13.6534 14.2352 13.0164 14.2352H7.0308C6.39378 14.2352 5.87695 14.7521 5.87695 15.3891C5.87695 15.8822 6.18973 16.296 6.62515 16.4609V28.8665C6.18973 29.0315 5.87695 29.4452 5.87695 29.9384ZM8.93284 28.7845V16.5429H11.1143V28.7845H8.93284Z" fill="#7A34A6"/>
<path d="M25.8291 29.9384C25.8291 30.5754 26.3459 31.0922 26.9829 31.0922H32.9685C33.6055 31.0922 34.1224 30.5754 34.1224 29.9384C34.1224 29.4452 33.8096 29.0315 33.3742 28.8665V16.4609C33.8096 16.296 34.1224 15.8822 34.1224 15.3891C34.1224 14.7521 33.6055 14.2352 32.9685 14.2352H26.9829C26.3459 14.2352 25.8291 14.7521 25.8291 15.3891C25.8291 15.8822 26.1419 16.296 26.5773 16.4609V28.8665C26.1419 29.0315 25.8291 29.4452 25.8291 29.9384ZM28.885 28.7845V16.5429H31.0665V28.7845H28.885Z" fill="#7A34A6"/>
<path d="M3.05078 33.6103C3.05078 34.2473 3.56761 34.7641 4.20463 34.7641H35.7942C36.4312 34.7641 36.948 34.2473 36.948 33.6103C36.948 32.9732 36.4312 32.4564 35.7942 32.4564H4.20463C3.56761 32.4564 3.05078 32.9732 3.05078 33.6103Z" fill="#7A34A6"/>
<path d="M37.0411 36.1538H2.95756C2.32054 36.1538 1.80371 36.6706 1.80371 37.3077C1.80371 37.9447 2.32054 38.4615 2.95756 38.4615H37.0411C37.6781 38.4615 38.1949 37.9447 38.1949 37.3077C38.1949 36.6706 37.6781 36.1538 37.0411 36.1538Z" fill="#7A34A6"/>
</svg>
