<svg width="48" height="42" viewBox="0 0 48 42" fill="none" xmlns="http://www.w3.org/2000/svg">
<path d="M26.4205 38.8119C26.8794 38.934 27.3516 38.9955 27.8243 38.9955C28.8062 38.9955 29.7911 38.7328 30.6675 38.2182L45.96 28.4252C46.8965 27.8686 47.5718 26.9828 47.8624 25.9326C47.8638 25.9277 47.8648 25.9228 47.8663 25.9179C48.1246 24.9247 48.0074 23.8788 47.5396 22.9824C47.0401 22.0009 46.1641 21.2856 45.0738 20.9677C43.9263 20.6327 42.6778 20.789 41.6128 21.4179L31.479 28.0248C31.4483 27.3661 31.2583 26.7211 30.9151 26.1362C30.3575 25.186 29.4634 24.5117 28.4024 24.2387L19.4874 21.8969C17.3755 21.3549 15.1905 21.6591 13.3335 22.7524L7.3394 26.2565L6.76079 25.2675C6.48247 24.7914 5.86967 24.6308 5.39262 24.9091L0.495163 27.7739C0.248092 27.9184 0.0747526 28.162 0.0190886 28.4428C-0.0365754 28.7236 0.0308074 29.0146 0.204147 29.2426L9.55522 41.5336C9.75053 41.7905 10.0484 41.9282 10.3516 41.9282C10.524 41.9282 10.6978 41.8842 10.856 41.7914L14.1436 39.8686C14.3726 39.7348 14.5391 39.5151 14.606 39.2582C14.6734 39.0024 14.6358 38.7294 14.502 38.5004L13.7082 37.1434L15.6661 35.998L26.4205 38.8119ZM10.6109 39.6176L2.47954 28.9301L5.53911 27.1406L6.11076 28.1177C6.11308 28.1218 6.1129 28.1267 6.11528 28.1308L11.4751 37.2909C11.4768 37.2938 11.4797 37.2951 11.4814 37.2979L12.2706 38.6469L10.6109 39.6176ZM15.0137 34.0624L12.6981 35.4169L8.34923 27.9828L14.3457 24.4775C15.7452 23.6528 17.3946 23.4242 18.9849 23.8329L27.8995 26.1742C28.4458 26.3149 28.9039 26.6611 29.19 27.1484C29.4776 27.6386 29.5562 28.2114 29.4092 28.77C29.3298 29.0825 29.1588 29.3658 28.9473 29.6105C28.7261 29.6565 28.4965 29.6776 28.2481 29.6484C28.1563 29.6381 28.066 29.6225 27.8809 29.579L20.3174 28.3808C19.7808 28.2949 19.2603 28.6669 19.1734 29.2123C19.087 29.7577 19.459 30.27 20.0049 30.3564L27.4717 31.5341C27.6558 31.5825 27.8438 31.6166 28.0249 31.6357C28.1954 31.6557 28.3643 31.6659 28.5318 31.6659C28.9182 31.6659 29.2937 31.6034 29.6585 31.4969C29.6823 31.4928 29.7045 31.4857 29.7281 31.4798C29.7528 31.4721 29.7787 31.4695 29.8033 31.4614C29.8321 31.4517 29.8518 31.4297 29.8791 31.4178C29.931 31.3954 29.9859 31.3857 30.0347 31.3539L42.6665 23.1171C43.2207 22.7895 43.8936 22.7055 44.5142 22.8881C45.0694 23.0497 45.5108 23.4052 45.7618 23.8984C46.003 24.3608 46.0635 24.8964 45.9327 25.4067C45.7813 25.9467 45.419 26.4203 44.9097 26.7236L29.6226 36.5131C28.8155 36.9863 27.8365 37.1201 26.9317 36.8784L15.7715 33.9584C15.6885 33.9365 15.6036 33.9257 15.5186 33.9257C15.3428 33.9257 15.168 33.9721 15.0137 34.0624Z" fill="#7A34A6"/>
<path d="M31.3745 0C25.0898 0 19.9766 5.11279 19.9766 11.3975C19.9766 17.6821 25.0898 22.7949 31.3745 22.7949C37.6592 22.7949 42.772 17.6821 42.772 11.3975C42.772 5.11279 37.6592 0 31.3745 0ZM31.3745 20.7949C26.1924 20.7949 21.9766 16.5791 21.9766 11.3975C21.9766 6.21582 26.1924 2 31.3745 2C36.5562 2 40.772 6.21582 40.772 11.3975C40.772 16.5791 36.5562 20.7949 31.3745 20.7949Z" fill="#7A34A6"/>
<path d="M33.0254 14.6379H30.8516V15.9641H28.8008V14.6379H27.4131V12.9768H28.8008V12.4573H27.4131V10.7961H28.8008V6.01099H32.6699C33.4173 6.01099 34.0736 6.14543 34.6387 6.41431C35.2038 6.68319 35.6413 7.06828 35.9512 7.56958C36.2656 8.06632 36.4229 8.63371 36.4229 9.27173C36.4229 10.2561 36.0879 11.0331 35.418 11.6028C34.7526 12.1724 33.8252 12.4573 32.6357 12.4573H30.8516V12.9768H33.0254V14.6379ZM30.8516 10.7961H32.6221C33.7705 10.7961 34.3447 10.2926 34.3447 9.2854C34.3447 8.80688 34.1989 8.42179 33.9072 8.13013C33.6156 7.8339 33.2122 7.68351 32.6973 7.67896H30.8516V10.7961Z" fill="#7A34A6"/>
</svg>
