<svg width="39" height="24" viewBox="0 0 39 24" fill="none" xmlns="http://www.w3.org/2000/svg">
<path d="M12.1875 24C18.9185 24 24.375 18.6274 24.375 12C24.375 5.37258 18.9185 0 12.1875 0C5.45653 0 0 5.37258 0 12C0 18.6274 5.45653 24 12.1875 24Z" fill="#F93232"/>
<path d="M26.8125 0C24.0752 0 21.5573 0.9 19.5244 2.4H19.5V2.4168C19.0174 2.7744 18.5737 3.1776 18.1508 3.6H20.8492C21.2245 3.9756 21.5707 4.3776 21.8912 4.8H17.0991C16.8041 5.1828 16.5336 5.5824 16.2862 6H22.7017C22.9308 6.3888 23.1465 6.7848 23.333 7.2H15.6658C15.4915 7.59 15.338 7.9896 15.2063 8.4H23.7912C23.918 8.7912 24.0179 9.1932 24.1057 9.6H14.8882C14.8066 9.9936 14.7383 10.392 14.6969 10.8H24.3019C24.3494 11.1936 24.375 11.5932 24.375 12H14.625C14.625 12.4068 14.6579 12.804 14.6981 13.2H24.3043C24.258 13.6068 24.191 14.0064 24.1069 14.4H14.8895C14.9736 14.8092 15.082 15.2076 15.2076 15.6H23.7924C23.6608 16.0104 23.5073 16.41 23.333 16.8H15.6658C15.8498 17.2128 16.057 17.6136 16.2862 18H22.7017C22.4555 18.4176 22.1813 18.8172 21.8863 19.2H17.0991C17.4232 19.6224 17.773 20.0244 18.1496 20.4H20.8492C20.425 20.8236 19.9826 21.2256 19.5 21.5832C21.5378 23.094 24.0642 24 26.8125 24C33.5437 24 39 18.6264 39 12C39 5.3736 33.5437 0 26.8125 0Z" fill="#FED049"/>
</svg>
