<svg width="78" height="24" viewBox="0 0 78 24" fill="none" xmlns="http://www.w3.org/2000/svg">
<path fill-rule="evenodd" clip-rule="evenodd" d="M12.3923 2.60325C13.0055 2.59949 14.828 2.43114 15.5999 5.10331C16.1199 6.90331 16.9482 9.85179 18.0849 13.9488H18.5478C19.7668 9.62945 20.6042 6.68096 21.0599 5.10331C21.8399 2.40331 23.7899 2.60331 24.5699 2.60331L30.5878 2.60331V21.8033H24.4542V10.4884H24.0429L20.6237 21.8033H16.009L12.5898 10.48H12.1785V21.8033H6.04492V2.60331L12.3923 2.60325ZM39.3955 2.60331V13.9266H39.8848L44.0439 4.61554C44.8513 2.76261 46.572 2.60331 46.572 2.60331H52.5075V21.8033H46.2458V10.48H45.7565L41.679 19.7911C40.8716 21.6356 39.0693 21.8033 39.0693 21.8033H33.1338V2.60331H39.3955ZM74.1507 11.7273C73.2773 14.2659 70.5343 16.0839 67.4975 16.0839H60.9309V21.8033H54.9764V11.7273H74.1507Z" fill="#0F754E"/>
<path fill-rule="evenodd" clip-rule="evenodd" d="M67.7846 2.60333H54.6641C54.9763 6.8779 58.5654 10.5372 62.2809 10.5372H74.5644C75.2732 6.98454 72.833 2.60333 67.7846 2.60333Z" fill="url(#paint0_linear)"/>
<defs>
<linearGradient id="paint0_linear" x1="74.6849" y1="7.59409" x2="54.6641" y2="7.59409" gradientUnits="userSpaceOnUse">
<stop stop-color="#1F5CD7"/>
<stop offset="1" stop-color="#02AEFF"/>
</linearGradient>
</defs>
</svg>
