<svg width="55" height="55" viewBox="0 0 55 55" fill="none" xmlns="http://www.w3.org/2000/svg">
<path fill-rule="evenodd" clip-rule="evenodd" d="M22.7009 19.8135L20.1803 35.3045H24.2131L26.7341 19.8135H22.7009ZM16.7871 19.8135L12.9421 30.4681L12.4873 28.1738L12.4876 28.1745L12.3874 27.6603C11.922 26.6574 10.8442 24.7513 8.80913 23.1246C8.20746 22.6438 7.60096 22.2335 7.01465 21.8829L10.5092 35.3045H14.7111L21.1277 19.8135H16.7871ZM32.5267 24.1141C32.5267 22.3627 36.4544 22.5877 38.1802 23.5387L38.7557 20.2117C38.7557 20.2117 36.9796 19.5362 35.1282 19.5362C33.1268 19.5362 28.3741 20.4115 28.3741 24.6644C28.3741 28.6669 33.9523 28.7167 33.9523 30.8181C33.9523 32.9195 28.9492 32.5439 27.2982 31.2183L26.6981 34.6959C26.6981 34.6959 28.4988 35.5712 31.2509 35.5712C34.0026 35.5712 38.1551 34.1456 38.1551 30.2677C38.1551 26.2402 32.5267 25.8651 32.5267 24.1141ZM48.9837 19.8135H45.7412C44.244 19.8135 43.8794 20.9679 43.8794 20.9679L37.865 35.3045H42.0686L42.9095 33.0037H48.0365L48.5095 35.3045H52.2125L48.9837 19.8135ZM44.0717 29.8247L46.1909 24.0276L47.383 29.8247H44.0717Z" fill="#005BAC"/>
<path fill-rule="evenodd" clip-rule="evenodd" d="M11.1861 21.2719C11.1861 21.2719 11.0191 19.8738 9.237 19.8738H2.76236L2.68652 20.1365C2.68652 20.1365 5.79875 20.771 8.78454 23.1479C11.6379 25.4197 12.5687 28.2515 12.5687 28.2515L11.1861 21.2719Z" fill="#F6AC1D"/>
</svg>
