<svg width="54" height="34" viewBox="0 0 54 34" fill="none" xmlns="http://www.w3.org/2000/svg">
<path fill-rule="evenodd" clip-rule="evenodd" d="M49.95 3.42916e-07C47.25 5.98876e-07 18.664 -5.43525e-07 2.7 3.42916e-07C1.35 4.17878e-07 0 1.35611 0 2.71223C0 10.8655 3.26151e-07 27.1223 0 29.8345C-1.56208e-07 32.5467 1.35 33.9029 4.05 33.9029C19.1103 33.9029 47.25 33.9029 49.95 33.9029C52.65 33.9029 54 32.5467 54 29.8345C54 27.1223 54 13.077 54 4.06834C54 1.35611 52.65 3.42916e-07 49.95 3.42916e-07Z" fill="#F4F4F4"/>
<path fill-rule="evenodd" clip-rule="evenodd" d="M27.0292 27.4367C29.8772 24.8465 31.6573 21.1029 31.6573 16.9423C31.6573 12.7821 29.8772 9.04156 27.0292 6.45093C24.5372 4.17376 21.2076 2.78802 17.5847 2.78802C9.79449 2.78802 3.49121 9.12483 3.49121 16.9423C3.49121 24.7628 9.79449 31.0996 17.5847 31.0996C21.2072 31.1 24.5369 29.7112 27.0292 27.4367Z" fill="#4186CD"/>
<path fill-rule="evenodd" clip-rule="evenodd" d="M27.0293 27.4367C29.8773 24.8464 31.6574 21.1029 31.6574 16.9423C31.6574 12.7821 29.8773 9.04156 27.0293 6.45093V27.4367Z" fill="#4487CA"/>
<path fill-rule="evenodd" clip-rule="evenodd" d="M36.4943 2.78839C32.8505 2.78839 29.5208 4.17413 27.0289 6.45129C26.5262 6.91698 26.0445 7.41732 25.6048 7.95195H28.4529C28.8509 8.42629 29.207 8.92664 29.5211 9.44996H24.5369C24.2438 9.92996 23.9717 10.4303 23.7202 10.948H30.3375C30.5677 11.434 30.7562 11.934 30.9238 12.4486H23.1335C22.966 12.9347 22.8194 13.435 22.7148 13.9466H31.3429C31.5524 14.9127 31.657 15.916 31.657 16.9427C31.657 18.5149 31.4055 20.0276 30.9238 21.4394H23.1339C23.3015 21.9536 23.49 22.454 23.7202 22.9396H30.3375C30.086 23.4577 29.8349 23.9577 29.5208 24.438H24.5366C24.8507 24.9614 25.2278 25.4617 25.6048 25.9364H28.4529C28.0132 26.4707 27.5315 26.971 27.0289 27.4367C29.5208 29.7112 32.8505 31.1 36.4943 31.1C44.2635 31.1 50.5668 24.7632 50.5668 16.9427C50.5668 9.12519 44.2631 2.78839 36.4943 2.78839Z" fill="#CA4638"/>
<path fill-rule="evenodd" clip-rule="evenodd" d="M49.0803 24.8061H49.1433C49.1647 24.8061 49.1849 24.8091 49.1849 24.8001C49.2063 24.7888 49.2269 24.7715 49.2269 24.7545C49.2269 24.7368 49.2059 24.7199 49.1849 24.7112C49.1849 24.7025 49.1433 24.7052 49.1433 24.7052H49.0803V24.8061ZM49.0803 25.036H48.9967V24.6336H49.1643C49.2059 24.6336 49.2269 24.6336 49.2689 24.6539C49.2899 24.6769 49.3105 24.7142 49.3105 24.7549C49.3105 24.8005 49.2895 24.8412 49.2475 24.8578L49.3105 25.0363H49.2059L49.1643 24.8755H49.0799V25.036H49.0803ZM49.1433 25.1829C49.3318 25.1829 49.4994 25.0277 49.4994 24.8348C49.4994 24.6419 49.3318 24.4866 49.1433 24.4866C48.9551 24.4866 48.8082 24.6419 48.8082 24.8348C48.8082 25.0277 48.9551 25.1829 49.1433 25.1829ZM48.6826 24.8348C48.6826 24.5816 48.8922 24.3777 49.1433 24.3777C49.3948 24.3777 49.604 24.5816 49.604 24.8348C49.604 25.088 49.3944 25.2918 49.1433 25.2918C48.8922 25.2918 48.6826 25.088 48.6826 24.8348Z" fill="#231F20"/>
<path fill-rule="evenodd" clip-rule="evenodd" d="M15.3859 20.8817H13.6058L14.6527 15.364L12.2444 20.8817H10.7784L10.4852 15.3957L9.31275 20.8817H7.7002L9.06123 13.7055H11.8466L11.8883 18.1476L13.8149 13.7055H16.7675L15.3859 20.8817Z" fill="#231F20"/>
<path fill-rule="evenodd" clip-rule="evenodd" d="M34.966 20.8094C34.4843 20.9421 34.1073 20.9993 33.7096 20.9993C32.8092 20.9993 32.3271 20.548 32.3271 19.7172C32.3271 19.5533 32.3271 19.3781 32.3688 19.1935L32.4733 18.6216L32.5573 18.1615L33.3741 13.7048H35.1122L34.8611 15.0445H35.7614L35.5103 16.4619H34.6099L34.1492 18.8974C34.1282 19.0062 34.1282 19.0842 34.1282 19.1389C34.1282 19.4406 34.2958 19.5729 34.7145 19.5729C34.924 19.5729 35.0702 19.5559 35.1962 19.5183L34.966 20.8094Z" fill="#231F20"/>
<path fill-rule="evenodd" clip-rule="evenodd" d="M28.013 16.8881C28.013 17.6269 28.4111 18.1333 29.353 18.5153C30.0652 18.8088 30.1904 18.8951 30.1904 19.1596C30.1904 19.5251 29.8763 19.6882 29.1649 19.6882C28.6412 19.6882 28.1386 19.617 27.5733 19.4557L27.3428 20.8038L27.4057 20.8155L27.7408 20.8758C27.8454 20.8931 27.9924 20.9104 28.2015 20.9274C28.6202 20.959 28.9553 20.9767 29.1855 20.9767C31.0495 20.9767 31.9083 20.3585 31.9083 19.0273C31.9083 18.2278 31.5522 17.7565 30.6724 17.4024C29.9186 17.1062 29.8351 17.0429 29.8351 16.7701C29.8351 16.4537 30.1282 16.2928 30.6938 16.2928C31.0495 16.2928 31.5312 16.3274 31.9709 16.3821L32.2224 15.0306C31.7617 14.9673 31.0705 14.9157 30.6724 14.9157C28.6832 14.9157 27.992 15.8128 28.013 16.8881Z" fill="#231F20"/>
<path fill-rule="evenodd" clip-rule="evenodd" d="M19.8668 18.2824C19.6786 18.2621 19.5947 18.2568 19.4687 18.2568C18.4848 18.2568 17.9821 18.5556 17.9821 19.1449C17.9821 19.5069 18.2333 19.7401 18.6104 19.7401C19.3222 19.7405 19.8458 19.1452 19.8668 18.2824ZM21.0603 20.8817H19.5943L19.6363 20.2751C19.1756 20.7551 18.5894 20.9823 17.7932 20.9823C16.8299 20.9823 16.1807 20.3324 16.1807 19.3894C16.1807 17.9663 17.3115 17.1382 19.2588 17.1382C19.4684 17.1382 19.7195 17.1521 19.971 17.1838C20.0336 16.9913 20.0546 16.908 20.0546 16.8044C20.0546 16.4163 19.7405 16.2724 18.9237 16.2724C18.4211 16.2724 17.8558 16.3357 17.4577 16.4363L17.2272 16.4966L17.0597 16.5339L17.3108 15.2231C18.1902 14.9986 18.7554 14.9127 19.4046 14.9127C20.9122 14.9127 21.7084 15.5049 21.7084 16.6262C21.7084 16.9137 21.6874 17.1322 21.5618 17.7821L21.2057 19.852L21.1431 20.2228L21.1012 20.5189L21.0592 20.7231V20.8817H21.0603Z" fill="#231F20"/>
<path fill-rule="evenodd" clip-rule="evenodd" d="M25.9612 17.2818C25.9612 17.1612 25.9822 17.0606 25.9822 16.9856C25.9822 16.5113 25.6681 16.2321 25.1444 16.2321C24.5792 16.2321 24.1811 16.6059 24.0346 17.2784L25.9612 17.2818ZM26.8196 20.7552C26.2124 20.9164 25.6257 20.9937 25.0185 20.9906C23.0502 20.9906 22.0449 20.0936 22.0449 18.3774C22.0449 16.3734 23.3434 14.8984 25.1025 14.8984C26.5471 14.8984 27.4688 15.7235 27.4688 17.0199C27.4688 17.4517 27.4058 17.868 27.2383 18.4603H23.762C23.7411 18.5492 23.7411 18.5899 23.7411 18.6442C23.7411 19.3197 24.2647 19.6648 25.2906 19.6648C25.9189 19.6648 26.4845 19.5529 27.1127 19.2967L26.8196 20.7552Z" fill="#231F20"/>
<path fill-rule="evenodd" clip-rule="evenodd" d="M43.7404 17.5379C43.7404 16.9283 43.4892 16.3504 42.7774 16.3504C41.8771 16.3504 41.3328 17.4144 41.3328 18.3514C41.3328 19.1422 41.7095 19.6742 42.3381 19.6621C42.7148 19.6621 43.5316 19.1418 43.6781 18.2331C43.7194 18.0236 43.7404 17.7911 43.7404 17.5379ZM45.5205 18.2361C45.269 20.1768 43.9079 21.037 42.1072 21.037C40.1386 21.037 39.3428 19.8294 39.3428 18.3487C39.3428 16.2784 40.6832 14.8784 42.7774 14.8784C44.5991 14.8784 45.5628 16.0313 45.5628 17.5123C45.5625 17.8714 45.5625 17.897 45.5205 18.2361Z" fill="#231F20"/>
<path fill-rule="evenodd" clip-rule="evenodd" d="M46.1067 19.9847H46.1693C46.1693 19.9847 46.1907 19.9847 46.2113 19.976C46.2319 19.9673 46.2323 19.9474 46.2323 19.93C46.2323 19.9157 46.2323 19.8984 46.2113 19.8901C46.2113 19.8814 46.1693 19.8814 46.1487 19.8814H46.1067V19.9847ZM46.1067 20.2119H46.0227V19.8095H46.1903C46.2113 19.8095 46.2533 19.8125 46.2949 19.8328C46.3158 19.8528 46.3365 19.8931 46.3365 19.9334C46.3365 19.9764 46.3155 20.0197 46.2739 20.0367L46.3365 20.2122H46.2319L46.1689 20.054H46.1067V20.2119ZM46.1693 20.3584C46.3582 20.3584 46.5048 20.2032 46.5048 20.0103C46.5048 19.8204 46.3582 19.6652 46.1693 19.6652C45.9811 19.6652 45.8136 19.8204 45.8136 20.0103C45.8136 20.2032 45.9811 20.3584 46.1693 20.3584ZM45.709 20.0103C45.709 19.7601 45.9185 19.5563 46.1697 19.5563C46.4212 19.5563 46.6303 19.7601 46.6303 20.0103C46.6303 20.2635 46.4208 20.4673 46.1697 20.4673C45.9181 20.4673 45.709 20.2635 45.709 20.0103Z" fill="white"/>
<path fill-rule="evenodd" clip-rule="evenodd" d="M15.8253 20.4673H14.0662L15.1131 14.95L12.7048 20.4673H11.1132L10.8201 14.9846L9.7732 20.4673H8.18164L9.54268 13.2911H12.2857L12.4113 17.7361L14.359 13.2911H17.207L15.8253 20.4673Z" fill="white"/>
<path fill-rule="evenodd" clip-rule="evenodd" d="M35.4058 20.3987C34.9242 20.531 34.5471 20.5883 34.149 20.5883C33.2486 20.5883 32.7666 20.1343 32.7666 19.3065C32.7666 19.1422 32.7876 18.9674 32.8086 18.7832L32.9132 18.2105L32.9968 17.7474L33.8139 13.2911H35.552L35.3009 14.6309H36.2012L35.9497 16.0513H35.0494L34.5887 18.4863C34.5677 18.5929 34.5677 18.6732 34.5677 18.7282C34.5677 19.0303 34.7562 19.1596 35.1749 19.1596C35.3635 19.1596 35.5104 19.1422 35.6356 19.1046L35.4058 20.3987Z" fill="white"/>
<path fill-rule="evenodd" clip-rule="evenodd" d="M39.9079 16.3071L39.8662 16.1232L40.2223 15.2088C40.138 15.2001 40.0964 15.1975 40.0964 15.1919C39.9918 15.1715 39.9498 15.1602 39.9288 15.1602C39.8872 15.1485 39.8243 15.1459 39.7617 15.1459C39.1754 15.1459 38.7773 15.4017 38.2327 16.0919L38.4216 15.054H36.5995L35.5312 20.8818H37.2697C37.4999 19.5446 37.6049 18.7832 37.7514 18.1502C37.9816 17.1009 38.7567 16.6236 39.322 16.7298C39.3846 16.7415 39.4266 16.7415 39.5102 16.7731L39.6147 16.8131L39.9079 16.3071Z" fill="#231F20"/>
<path fill-rule="evenodd" clip-rule="evenodd" d="M40.5152 14.6798C40.3687 14.6222 40.3477 14.6222 40.3271 14.6165C40.2427 14.5962 40.1801 14.5849 40.1801 14.5819C40.1175 14.5732 40.0546 14.5676 39.9916 14.5676C39.4263 14.5676 39.0076 14.8264 38.463 15.5166L38.6305 14.6309H37.039L35.9707 20.4673H37.7298C38.358 16.8994 38.6302 16.2728 39.4679 16.2728C39.5309 16.2728 39.5935 16.2785 39.6775 16.2871L39.887 16.3301L40.5152 14.6798Z" fill="white"/>
<path fill-rule="evenodd" clip-rule="evenodd" d="M28.453 16.477C28.453 17.2129 28.8717 17.7219 29.8145 18.1043C30.5263 18.3948 30.6312 18.481 30.6312 18.7485C30.6312 19.1106 30.3171 19.2745 29.6259 19.2745C29.0813 19.2745 28.5996 19.2025 28.0343 19.0443L27.7832 20.3901L27.8668 20.404L28.1809 20.4613C28.2855 20.482 28.4534 20.499 28.6626 20.5137C29.0813 20.5453 29.3954 20.5623 29.6259 20.5623C31.5102 20.5623 32.369 19.947 32.369 18.6159C32.369 17.8138 32.0133 17.3451 31.1125 16.9913C30.3797 16.6952 30.2954 16.6292 30.2954 16.3557C30.2954 16.0422 30.5889 15.8814 31.1541 15.8814C31.5099 15.8814 31.9709 15.913 32.4316 15.9676L32.6827 14.6166C32.222 14.5533 31.5312 14.5013 31.1125 14.5013C29.1442 14.5017 28.453 15.3987 28.453 16.477Z" fill="white"/>
<path fill-rule="evenodd" clip-rule="evenodd" d="M20.2437 17.8684C20.0551 17.8484 19.9712 17.8454 19.8456 17.8454C18.8613 17.8454 18.3586 18.1442 18.3586 18.7335C18.3586 19.0959 18.5891 19.3287 18.9869 19.3287C19.699 19.3291 20.2017 18.7308 20.2437 17.8684ZM21.5208 20.4673H20.0548L20.0967 19.8637C19.6571 20.3434 19.0498 20.5679 18.2537 20.5679C17.3113 20.5679 16.6621 19.918 16.6621 18.975C16.6621 17.5542 17.793 16.7238 19.7403 16.7238C19.9288 16.7238 20.18 16.7408 20.4521 16.7698C20.4941 16.5769 20.5147 16.4966 20.5147 16.3904C20.5147 16.0049 20.2006 15.8614 19.3838 15.8614C18.8811 15.8614 18.3155 15.9217 17.9388 16.0223L17.6877 16.0856L17.5411 16.1232L17.7716 14.8091C18.651 14.5849 19.2163 14.5016 19.8655 14.5016C21.3731 14.5016 22.1692 15.0939 22.1692 16.2125C22.1692 16.5 22.1482 16.7185 22.0437 17.3681L21.6666 19.4414L21.604 19.8121L21.562 20.1083L21.541 20.3091L21.5208 20.4673Z" fill="white"/>
<path fill-rule="evenodd" clip-rule="evenodd" d="M26.3377 16.8707V16.5716C26.3377 16.0972 26.0446 15.821 25.5209 15.821C24.9557 15.821 24.5576 16.1918 24.39 16.8677L26.3377 16.8707ZM27.2594 20.3437C26.6728 20.502 26.0866 20.5796 25.4789 20.5796C23.5107 20.5796 22.4844 19.6825 22.4844 17.9633C22.4844 15.9623 23.7824 14.4873 25.5415 14.4873C26.9865 14.4873 27.9079 15.3124 27.9079 16.6062C27.9079 17.0376 27.8449 17.4573 27.698 18.0492H24.2221C24.2011 18.1385 24.2011 18.1788 24.2011 18.2331C24.2011 18.909 24.7244 19.2541 25.7297 19.2541C26.3579 19.2541 26.9236 19.1388 27.5514 18.883L27.2594 20.3437Z" fill="white"/>
<path fill-rule="evenodd" clip-rule="evenodd" d="M44.1588 17.075C44.1588 16.4653 43.9077 15.8878 43.1959 15.8878C42.2955 15.8878 41.7512 16.9514 41.7512 17.8888C41.7512 18.6822 42.1283 19.2146 42.7566 19.2025C43.1336 19.2025 43.95 18.6822 44.0966 17.7735C44.1382 17.5606 44.1588 17.3281 44.1588 17.075ZM45.9809 17.8228C45.7084 19.7632 44.368 20.6256 42.5676 20.6256C40.578 20.6256 39.7822 19.415 39.7822 17.9343C39.7822 15.867 41.1433 14.4644 43.2379 14.4644C45.0592 14.4644 46.0229 15.6173 46.0229 17.0979C46.0229 17.46 46.0229 17.4834 45.9809 17.8228Z" fill="white"/>
</svg>
