<svg width="22" height="20" viewBox="0 0 22 20" fill="none" xmlns="http://www.w3.org/2000/svg">
<path d="M21.3306 12.1307L20.1975 12.4526L17.4098 2.69252C17.3776 2.5702 17.2939 2.46719 17.1781 2.40281C17.0686 2.33843 16.9334 2.32555 16.8111 2.35774L12.047 3.71616L9.32368 4.49516L5.02308 5.71839L3.88355 1.72038C3.84492 1.58518 3.74835 1.47573 3.62603 1.41779L0.690295 0.0464931C0.44565 -0.0693912 0.162377 0.040055 0.0464931 0.278262C-0.0693912 0.522906 0.040055 0.806179 0.278262 0.922063L3.01442 2.20323L4.22477 6.44588C4.22477 6.44588 4.22477 6.44588 4.22477 6.45232L6.49095 14.4161C6.05316 14.6415 5.69263 14.9891 5.44799 15.4269C5.11965 16.0128 5.04239 16.6952 5.2291 17.339C5.53812 18.4142 6.52958 19.1674 7.64979 19.1674C7.88156 19.1674 8.11333 19.1352 8.33866 19.0708C8.98246 18.8841 9.52325 18.4592 9.84515 17.8734C10.1091 17.3969 10.2121 16.8562 10.1413 16.3218L19.985 13.5213H19.9915L21.5945 13.0642C21.8521 12.9933 22.0001 12.7229 21.9293 12.4654C21.8521 12.2079 21.5817 12.0598 21.3306 12.1307ZM12.5041 7.08325L11.7444 6.81929C11.5512 6.74847 11.3388 6.81285 11.21 6.9738L10.7078 7.59829L10.0512 5.29348L11.8474 4.78487L12.5041 7.08325ZM9.00177 17.4098C8.8022 17.7704 8.46742 18.0343 8.0747 18.1438C7.93306 18.1824 7.79143 18.2017 7.64979 18.2017C6.96092 18.2017 6.34931 17.7382 6.16261 17.075C6.04673 16.6759 6.09823 16.2574 6.29781 15.8969C6.49739 15.5364 6.83216 15.2724 7.22488 15.163C7.36652 15.1243 7.50815 15.105 7.64979 15.105C8.33866 15.105 8.95027 15.5686 9.13697 16.2317C9.25286 16.6308 9.20135 17.0493 9.00177 17.4098ZM9.83228 15.4076C9.39449 14.635 8.56399 14.1393 7.64979 14.1393C7.57253 14.1393 7.50172 14.1458 7.42446 14.1522L5.28704 6.6519L9.1241 5.55744L10.0383 8.75713C10.0898 8.93096 10.2314 9.05972 10.4053 9.09834C10.4375 9.10478 10.4696 9.10478 10.5018 9.10478C10.6435 9.10478 10.7851 9.0404 10.8752 8.92452L11.7508 7.83649L13.0642 8.30003C13.1157 8.31934 13.1736 8.32578 13.2316 8.32578C13.4955 8.32578 13.7144 8.10689 13.7144 7.84293C13.7144 7.78499 13.7015 7.72705 13.6822 7.67554L12.7809 4.50804L16.6179 3.41358L19.2704 12.7101L9.83228 15.4076Z" fill="#7A34A6"/>
</svg>
