<svg width="19" height="13" viewBox="0 0 19 13" fill="none" xmlns="http://www.w3.org/2000/svg">
<path d="M16.5452 0H1.46699C1.07792 0 0.704784 0.156953 0.429671 0.436332C0.154557 0.71571 0 1.09463 0 1.48973L0 10.9272C0 11.1229 0.0379447 11.3166 0.111668 11.4973C0.185391 11.6781 0.293448 11.8423 0.429671 11.9806C0.565893 12.119 0.727612 12.2287 0.905595 12.3036C1.08358 12.3784 1.27434 12.417 1.46699 12.417H16.5452C16.9343 12.417 17.3074 12.26 17.5825 11.9806C17.8576 11.7013 18.0122 11.3223 18.0122 10.9272V1.48973C18.0122 1.09463 17.8576 0.71571 17.5825 0.436332C17.3074 0.156953 16.9343 0 16.5452 0V0ZM0.756179 2.86427H17.2484V4.67652H0.756179V2.86427ZM1.46699 0.767902H16.5452C16.7337 0.767902 16.9145 0.843952 17.0478 0.979321C17.1811 1.11469 17.256 1.29829 17.256 1.48973V2.09637H0.756179V1.48973C0.756179 1.29829 0.831067 1.11469 0.96437 0.979321C1.09767 0.843952 1.27847 0.767902 1.46699 0.767902ZM16.5452 11.6491H1.46699C1.27847 11.6491 1.09767 11.573 0.96437 11.4377C0.831067 11.3023 0.756179 11.1187 0.756179 10.9272V5.44443H17.2484V10.9196C17.2494 11.0144 17.232 11.1084 17.1972 11.1964C17.1624 11.2844 17.1109 11.3645 17.0456 11.4322C16.9803 11.5 16.9025 11.554 16.8166 11.5912C16.7308 11.6284 16.6385 11.6481 16.5452 11.6491Z" fill="#7A34A6"/>
<path d="M14.6925 7.51781C14.4866 7.51781 14.2829 7.56231 14.0952 7.64837C13.9074 7.73443 13.7399 7.86007 13.6036 8.01695C13.406 7.79014 13.1449 7.6299 12.8553 7.55759C12.5657 7.48527 12.2612 7.50433 11.9826 7.61221C11.7039 7.72009 11.4642 7.91167 11.2954 8.16141C11.1267 8.41115 11.0369 8.70718 11.0381 9.01005C11.0393 9.31293 11.1313 9.60824 11.302 9.85663C11.4726 10.105 11.7138 10.2947 11.9933 10.4004C12.2728 10.506 12.5774 10.5227 12.8664 10.4481C13.1555 10.3735 13.4153 10.2111 13.6112 9.98278C13.7737 10.1664 13.9789 10.306 14.208 10.3887C14.4371 10.4713 14.6829 10.4946 14.9231 10.4563C15.1633 10.418 15.3903 10.3193 15.5835 10.1693C15.7766 10.0193 15.9297 9.82263 16.029 9.59721C16.1283 9.3718 16.1705 9.12478 16.1519 8.87858C16.1332 8.63238 16.0543 8.39481 15.9223 8.18746C15.7902 7.9801 15.6093 7.80953 15.3959 7.69125C15.1824 7.57296 14.9433 7.5107 14.7001 7.51013L14.6925 7.51781ZM12.5223 9.72169C12.3817 9.72169 12.2443 9.67936 12.1274 9.60004C12.0105 9.52072 11.9194 9.40799 11.8656 9.27609C11.8118 9.1442 11.7977 8.99906 11.8252 8.85904C11.8526 8.71902 11.9203 8.5904 12.0197 8.48945C12.1191 8.3885 12.2457 8.31976 12.3836 8.2919C12.5215 8.26405 12.6644 8.27835 12.7943 8.33298C12.9242 8.38761 13.0352 8.48013 13.1133 8.59884C13.1914 8.71754 13.2331 8.8571 13.2331 8.99986C13.2331 9.1913 13.1582 9.3749 13.0249 9.51027C12.8916 9.64564 12.7108 9.72169 12.5223 9.72169ZM14.6925 9.72169C14.552 9.72169 14.4145 9.67936 14.2976 9.60004C14.1807 9.52072 14.0896 9.40799 14.0358 9.27609C13.982 9.1442 13.968 8.99906 13.9954 8.85904C14.0228 8.71902 14.0905 8.5904 14.1899 8.48945C14.2893 8.3885 14.416 8.31976 14.5539 8.2919C14.6917 8.26405 14.8347 8.27835 14.9646 8.33298C15.0944 8.38761 15.2054 8.48013 15.2836 8.59884C15.3617 8.71754 15.4033 8.8571 15.4033 8.99986C15.4033 9.1913 15.3285 9.3749 15.1952 9.51027C15.0619 9.64564 14.8811 9.72169 14.6925 9.72169Z" fill="#7A34A6"/>
</svg>
