<svg width="21" height="12" viewBox="0 0 21 12" fill="none" xmlns="http://www.w3.org/2000/svg">
<path d="M19.2275 8.70177C17.1818 8.70177 16.2058 8.04254 15.1724 7.34456C14.2313 6.709 13.2603 6.0572 11.5681 5.86159C11.6195 5.72283 11.6487 5.57478 11.6487 5.42001C11.6487 4.67052 10.9936 4.06072 10.1882 4.06072C9.27476 4.06072 8.53191 3.36947 8.53191 2.5195C8.53191 1.66953 9.27476 0.978285 10.1882 0.978285C11.1013 0.978285 11.8447 1.66953 11.8447 2.5195H12.8957C12.8957 1.13027 11.6813 0 10.1884 0C8.69549 0 7.48085 1.13027 7.48085 2.5195C7.48085 3.90873 8.69549 5.039 10.1884 5.039C10.4141 5.039 10.5979 5.21002 10.5979 5.42001C10.5979 5.63001 10.4141 5.80102 10.1884 5.80102V5.80752C8.01149 5.87342 6.90059 6.61966 5.82758 7.34456C4.79423 8.04254 3.81848 8.70177 1.77246 8.70177C0.795215 8.70177 0 9.44152 0 10.3509C0 11.2603 0.794965 12 1.77246 12H19.2278C20.205 12 21 11.2603 21 10.3509C21 9.44152 20.2048 8.70177 19.2275 8.70177ZM19.2275 11.0222H1.77221C1.37448 11.0222 1.05106 10.721 1.05106 10.3509C1.05106 9.98078 1.37448 9.67959 1.77221 9.67959C4.15935 9.67959 5.32113 8.89506 6.44475 8.13629C7.47811 7.43831 8.45386 6.77908 10.4999 6.77908C12.5456 6.77908 13.5216 7.43831 14.555 8.13629C15.6786 8.89529 16.8404 9.67959 19.2275 9.67959C19.6253 9.67959 19.9489 9.98078 19.9489 10.3509C19.9489 10.721 19.6253 11.0222 19.2275 11.0222Z" fill="#7A34A6"/>
</svg>
