<svg width="13" height="14" viewBox="0 0 13 14" fill="none" xmlns="http://www.w3.org/2000/svg">
<path opacity="0.8" fill-rule="evenodd" clip-rule="evenodd" d="M6.49902 0.623047C2.90958 0.623047 -0.000976562 3.46829 -0.000976562 6.97758C-0.000976562 10.4869 2.90958 13.3321 6.49902 13.3321C10.089 13.3321 12.999 10.4869 12.999 6.97758C12.999 3.46829 10.089 0.623047 6.49902 0.623047ZM8.88945 9.4712L8.69982 9.65654C8.54216 9.81064 8.27613 9.81806 8.11034 9.6719L5.6614 7.57755C5.49452 7.43193 5.36828 7.1338 5.37912 6.91562L5.60613 3.13785C5.61805 2.91915 5.81039 2.74122 6.03416 2.74122H6.30127C6.52503 2.74122 6.71683 2.91915 6.72766 3.13732L6.9135 6.27964C6.92488 6.49834 7.05545 6.80919 7.20337 6.97281L8.90679 8.894C9.0547 9.05763 9.04766 9.31711 8.88945 9.4712Z" fill="#7A34A6" fill-opacity="0.77"/>
</svg>
