<svg width="13" height="12" viewBox="0 0 13 12" fill="none" xmlns="http://www.w3.org/2000/svg">
<path opacity="0.8" fill-rule="evenodd" clip-rule="evenodd" d="M6.49875 6.51812C5.44224 6.51812 -0.000976562 2.15798 -0.000976562 2.15798V1.6789C-0.000976562 1.08529 0.483731 0.603516 1.08204 0.603516H11.9155C12.5143 0.603516 12.999 1.08529 12.999 1.6789L12.9904 2.21659C12.9904 2.21659 7.60611 6.51812 6.49875 6.51812ZM6.49875 7.99677C7.65697 7.99677 12.9904 3.82966 12.9904 3.82966L12.999 10.282C12.999 10.8756 12.5143 11.3573 11.9155 11.3573H1.08204C0.484272 11.3573 -0.000976562 10.8756 -0.000976562 10.282L0.00767892 3.82966C0.00713796 3.82966 5.44224 7.99677 6.49875 7.99677Z" fill="#7A34A6" fill-opacity="0.77"/>
</svg>
